<svg id="Layer_1" data-name="Layer 1" xmlns="http://www.w3.org/2000/svg" viewBox="0 0 1058.09 1200">
  <title>css</title>
  <path d="M167.24,1080,71,0h1058.1l-96.39,1079.87L599.36,1200Z" transform="translate(-70.95 0)" style="fill: #1673b6"/>
  <path d="M600,1108.18l350.13-97.07L1032.52,88.3H600Z" transform="translate(-70.95 0)" style="fill: #34a9db"/>
  <path d="M600,479.6H775.29L787.4,344H600V211.49H932.17L929,247l-32.56,365H600Z" transform="translate(-70.95 0)" style="fill: #fff"/>
  <path d="M600.79,823.61l-.58.18L452.69,784l-9.43-105.65H310.31l18.55,208,271.33,75.3.6-.17Z" transform="translate(-70.95 0)" style="fill: #ebebeb"/>
  <path d="M764,606.46l-16,177.39L600.34,823.73V961.55l271.55-75.26,2-22.38,23-257.45Z" transform="translate(-70.95 0)" style="fill: #fff"/>
  <path d="M600.46,211.49V344h-320l-2.65-29.77-6-67.15-3.17-35.55ZM600,479.62V612.08H454.35l-2.65-29.76-6.05-67.16-3.16-35.54Z" transform="translate(-70.95 0)" style="fill: #ebebeb"/>
</svg>
