<?xml version="1.0" encoding="utf-8"?>
<!-- Generator: Adobe Illustrator 22.1.0, SVG Export Plug-In . SVG Version: 6.00 Build 0)  -->
<svg version="1.1" id="Layer_1" xmlns="http://www.w3.org/2000/svg" xmlns:xlink="http://www.w3.org/1999/xlink" x="0px" y="0px"
	 viewBox="0 0 1200 1200" style="enable-background:new 0 0 1200 1200;" xml:space="preserve">
<style type="text/css">
	.st0{fill:#1673B6;}
	.st1{fill:#34A9DB;}
	.st2{fill:#FFFFFF;}
	.st3{fill:#EBEBEB;}
</style>
<title>css</title>
<path class="st0" d="M167.2,1080L71,0h1058.1l-96.4,1079.9L599.3,1200L167.2,1080z"/>
<path class="st1" d="M600,1108.2l350.1-97.1l82.4-922.8H600V1108.2z"/>
<path class="st2" d="M600,479.6h175.3L787.4,344H600V211.5h332.2L929,247l-32.6,365H600V479.6z"/>
<path class="st3" d="M600.7,823.6l-0.6,0.2L452.6,784l-9.4-105.7h-133l18.5,208l271.3,75.3l0.6-0.2L600.7,823.6z"/>
<path class="st2" d="M764,606.5l-16,177.4l-147.7,39.9v137.8l271.5-75.3l2-22.4l23-257.5L764,606.5z"/>
<path class="st3" d="M600.4,211.5V344h-320l-2.6-29.8l-6-67.1l-3.2-35.6L600.4,211.5z M600,479.6v132.5H454.3l-2.6-29.8l-6-67.2
	l-3.2-35.5L600,479.6z"/>
</svg>
