<svg id="Layer_1" data-name="Layer 1" xmlns="http://www.w3.org/2000/svg" viewBox="0 0 1200 1200">
  <title>dart</title>
  <path d="M244.73,955.27,39.44,750C15.09,725,0,689.72,0,655.23c0-16,9-40.94,15.79-55.23l189.5-394.71Z" style="fill: #00589c"/>
  <path d="M947.42,244.73,742.13,39.44C724.22,21.44,686.9,0,655.32,0c-27.18,0-53.82,5.47-71,15.79L205.38,205.29Z" style="fill: #56c0ee"/>
  <polygon points="489.46 1200 986.86 1200 986.86 986.86 615.79 868.37 276.31 986.86 489.46 1200" style="fill: #56c0ee"/>
  <path d="M205.29,844.73c0,63.34,7.94,78.87,39.44,110.54l31.58,31.58H986.85L639.52,592.15,205.29,205.29Z" style="fill: #44b3e7"/>
  <path d="M836.88,205.21H205.29L986.85,986.77H1200V497.31L947.33,244.64C911.87,209.09,880.37,205.21,836.88,205.21Z" style="fill: #00589c"/>
</svg>
