<?xml version="1.0" encoding="utf-8"?>
<!-- Generator: Adobe Illustrator 22.1.0, SVG Export Plug-In . SVG Version: 6.00 Build 0)  -->
<svg version="1.1" id="Layer_1" xmlns="http://www.w3.org/2000/svg" xmlns:xlink="http://www.w3.org/1999/xlink" x="0px" y="0px"
	 viewBox="0 0 1200 1200" style="enable-background:new 0 0 1200 1200;" xml:space="preserve">
<style type="text/css">
	.st0{fill:#000000;}
</style>
<path class="st0" d="M169.9,600V0h860.2v1200H169.9V600z M828.4,903.5c6.5-0.6,12.8-2.4,18.6-5.4c21.6-10.6,34-33.6,43.9-81.3
	c3.8-18.6,59.8-308.4,60.5-313.1c1.3-9.3-0.4-19.1-4.2-23.8c-1.3-1.3-2.7-2.4-4.3-3.2l-3-1.6h-14.5c-12.7,0-14.9,0-17.4,1
	c-5.7,1.9-10.4,7.8-12.8,15.8c-0.5,1.9-8.4,44-17.4,93.6l-16.4,90.1l-2.3-10.5c-28-127.4-38.2-172.6-39.7-176.6
	c-1-3.1-2.8-5.8-5.2-8c-5.3-5.4-5.9-5.5-28.4-5.5c-20.5,0-21.1,0-25,3.7c-4.3,4-6.1,10.8-5.5,21c0.3,5.7,2.3,13.5,34.4,139.2
	c33.1,129.3,37.6,147.1,39.4,158.8c2.3,15-2.5,35.6-10.4,44.6c-1.6,1.9-1.9,2-4.2,1.6c-1.4,0-6-1.3-10.2-2.5
	c-13.4-3.9-18.1-3.6-23.1,1.4c-4.8,4.8-6.9,12.4-6.9,25.5c0,12.8,1.4,17,8,23.7c6.5,6.6,16.2,10.4,29.8,11.5
	C820.1,904.2,822.9,904.2,828.4,903.5L828.4,903.5z M733.6,817.9c3.9-1.9,6.8-5.4,8-9.6c1-2.9,1.1-4.9,1.1-17.8
	c0-12.8-0.2-14.9-1-17.7c-2-6-6.8-9.8-13.9-10.8c-2-0.5-10-0.5-17.7-0.5c-18.3-0.1-18.9-0.5-22.3-9.2c-3.4-9-4.8-16.3-5.6-30.1
	c-0.6-32.3-0.8-64.7-0.6-97v-88.3H699c22.7,0,25.3-0.5,30.1-5.6c2.8-3.4,4.6-7.6,5.1-12c0.7-8.9,0.7-17.8,0-26.7
	c-1.3-8-5-13.6-10.6-16.1c-2.8-1.3-3.2-1.3-22.5-1.5h-19.6l-0.2-61c-0.2-54.5-0.3-61.4-1-63.9c-1.4-5.4-5-9.9-10.1-12.4
	c-2.6-1.2-3.6-1.3-16-1.4c-13.5,0-17.8,0-21.5,1.9c-4.3,2.1-7.4,6.6-9.3,13.9c-0.7,2.7-1.6,17.3-3.8,63.1l-3,59.7c0,0-4,0-9,0.5
	c-10.3,0.5-13.2,1.1-16.3,4.3c-4.6,4.6-6,9.5-6.4,22.8c-0.5,16.7,1,24.3,5.8,29.4c3.8,4.1,6.7,5,17.3,5.3l8.7,0.5v89.2
	c0,85,0.3,101,1.7,113.7c2.1,18.5,6.5,35.5,12.1,46.4c9.7,19,27.2,30.9,49.4,33.4h50.3l3.5-2L733.6,817.9z M361.3,817.9
	c4.9-2.6,8-7.7,10-16.6c0.8-3.8,0.9-20,0.9-225.9c0-209.2-0.1-222-1-225.5c-2.5-9.7-9.5-14.5-18.9-13c-1.8,0.5-17.2,4.2-34.3,8.8
	c-17.1,4.5-34.2,9-37.9,9.9c-8.5,2.1-10.7,3.1-14.1,6.3c-5.3,4.9-6.1,9.3-6.1,30.3c0,20.8,0.8,25,6,30.2c4.7,4.8,9.5,5,22.8,1.5
	c5.1-1.3,9.6-2.4,10-2.4c0.5,0,0.7,39.2,0.9,188.1c0.1,171.8,0.3,188.5,1,192c2.4,10.1,5.6,14.8,11.8,17c1.7,0.7,6.6,0.8,24.4,0.7
	C358.5,819.3,359,819.3,361.3,817.9L361.3,817.9z M521.4,817.9c4.6-2.3,7.6-6.8,9.8-14.5l1.2-4.2l0.2-221.7
	c0.1-159.7,0-222.8-0.5-225.5c-1.6-10-7.3-15.4-16.1-15.4c-3.3,0-9.9,1.5-42.9,10.2c-28,7.4-39.9,10.7-42.4,12
	c-3.9,1.9-6.9,5.2-8.5,9.2c-1.2,3-1.2,3.6-1.2,24c0,20.8,0,20.9,1.3,24.2c1,2.3,2.4,4.3,4.2,6c5,5,8.6,5.3,22.8,1.7
	c3.5-0.9,6.9-1.7,10.4-2.5c0.4,0,0.6,60.1,0.7,189.5l0.1,189.5l1.3,4.3c1.1,4.4,3.5,8.4,6.8,11.5c3.9,3.1,4.3,3.2,28.5,3
	C517.8,819.1,519.4,819.1,521.4,817.9z"/>
</svg>
