<?xml version="1.0" encoding="utf-8"?>
<!-- Generator: Adobe Illustrator 22.1.0, SVG Export Plug-In . SVG Version: 6.00 Build 0)  -->
<svg version="1.1" id="Layer_1" xmlns="http://www.w3.org/2000/svg" xmlns:xlink="http://www.w3.org/1999/xlink" x="0px" y="0px"
	 viewBox="0 0 1200 1200" style="enable-background:new 0 0 1200 1200;" xml:space="preserve">
<style type="text/css">
	.st0{fill:#000000;}
</style>
<title>express</title>
<g id="original">
	<path class="st0" d="M1200,929.8c-43.7,11.1-70.6,0.5-94.9-35.9c-54.4-81.5-114.4-159.2-172.3-238.3c-7.5-10.2-15.2-20.3-24.9-33
		C839.4,715,771,803.1,706.8,894.7c-23,32.7-47.1,47-90,35.4l257.7-345.8L634.6,271.9c41.3-8,69.8-3.9,95,33
		c55.8,81.5,117.3,159.2,178.7,241.3c61.7-81.8,122.5-159.6,180-240.4c23.1-32.7,47.9-45.2,89.3-33.1c-31.4,41.6-62.1,82.6-93,123.3
		c-41.7,54.9-82.7,110.4-126,164.1c-15.4,19.1-12.9,31.6,0.9,49.7C1039.5,715,1118.6,821.3,1200,929.8z"/>
	<path class="st0" d="M0.3,578.5c6.9-34.5,11.5-69.8,21-103.7C78.8,269.7,314.2,184.4,476,311.6c94.8,74.6,118.3,179.7,113.6,298.2
		H55.5c-8,212.6,145,340.9,340.1,275.5c68.4-23,108.7-76.6,128.9-143.6c10.2-33.6,27.2-38.9,58.8-29.3
		c-16.2,83.8-52.8,153.9-129.4,197.8C339,975.7,175.1,954.5,88.8,863.3C37.9,809.7,16.3,743,6.7,670.9c-1.4-11.5-4.4-22.8-6.7-34.2
		C0.2,617.3,0.3,597.9,0.3,578.5z M56.5,564.3h482.7c-3.2-153.7-98.9-262.9-229.7-263.9C165.9,299.2,62.7,405.8,56.5,564.3z"/>
</g>
</svg>
