<svg id="Layer_1" data-name="Layer 1" xmlns="http://www.w3.org/2000/svg" viewBox="0 0 1200 696.5">
  <title>express</title>
  <g id="original">
    <path d="M1200,929.8c-43.65,11.1-70.64.47-94.86-35.9-54.36-81.45-114.38-159.17-172.29-238.33-7.46-10.24-15.21-20.29-24.88-33C839.44,715,771,803.07,706.77,894.67c-23,32.73-47.09,47-90,35.41L874.47,584.26,634.6,271.94c41.26-8,69.78-3.93,95,33,55.8,81.55,117.35,159.17,178.7,241.3,61.74-81.84,122.52-159.56,179.95-240.35,23.07-32.73,47.86-45.17,89.3-33.11-31.39,41.63-62.12,82.6-93,123.28-41.74,54.85-82.7,110.36-126,164.06-15.41,19.14-12.92,31.58.86,49.68C1039.48,715,1118.55,821.25,1200,929.8Z" transform="translate(0 -251.75)" style="fill: #010101"/>
    <path d="M.29,578.52C7.18,544,11.77,508.74,21.34,474.85,78.77,269.73,314.24,184.45,476,311.56c94.76,74.57,118.3,179.66,113.61,298.16H55.52c-8,212.59,145,340.94,340.08,275.47,68.43-23,108.73-76.57,128.93-143.57,10.24-33.6,27.18-38.86,58.77-29.29-16.18,83.85-52.84,153.91-129.41,197.75C339,975.74,175.07,954.49,88.83,863.27,37.9,809.67,16.27,743,6.7,670.88,5.26,659.4,2.3,648.1,0,636.71Q.29,607.61.29,578.52Zm56.18-14.27h482.7C536,410.53,440.3,301.32,309.45,300.36,165.88,299.21,62.69,405.84,56.47,564.25Z" transform="translate(0 -251.75)" style="fill: #010101"/>
  </g>
</svg>
