<svg id="Layer_1" data-name="Layer 1" xmlns="http://www.w3.org/2000/svg" xmlns:xlink="http://www.w3.org/1999/xlink" viewBox="0 0 969.06 1200">
  <defs>
    <clipPath id="clip-path" transform="translate(-115.47 0)">
      <path d="M1084.53,553.73l-323,323.14,323,323.13H715.41L392.28,876.87,715.41,553.73ZM715.41,0,115.47,599.94,300.09,784.56,1084.53,0Z" style="fill: none"/>
    </clipPath>
    <linearGradient id="linear-gradient" x1="10245.07" y1="-16609.11" x2="12476.61" y2="-14377.56" gradientTransform="matrix(0.06, 0, 0, -0.06, -0.49, 73.72)" gradientUnits="userSpaceOnUse">
      <stop offset="0" stop-color="#2d3079" stop-opacity="0.4"/>
      <stop offset="1" stop-color="#2d3079" stop-opacity="0"/>
    </linearGradient>
    <radialGradient id="radial-gradient" cx="16540.65" cy="9018.51" r="95304.91" gradientTransform="translate(-112.09 -57.13) scale(0.02)" gradientUnits="userSpaceOnUse">
      <stop offset="0" stop-color="#fff" stop-opacity="0.1"/>
      <stop offset="1" stop-color="#fff" stop-opacity="0"/>
    </radialGradient>
  </defs>
  <title>flutter</title>
  <g>
    <g style="clip-path: url(#clip-path)">
      <path d="M392.39,876.87l184.5,184.61,507.64-507.75H715.41Z" transform="translate(-115.47 0)" style="fill: #4bc9f5"/>
    </g>
    <g style="clip-path: url(#clip-path)">
      <path d="M715.41,0h369.12L300.09,784.56,115.47,599.94Z" transform="translate(-115.47 0)" style="fill: #4bc9f5"/>
    </g>
    <g style="clip-path: url(#clip-path)">
      <path d="M576.89,1061.48l138.52,138.4h369.12l-323-323Z" transform="translate(-115.47 0)" style="fill: #03579b"/>
    </g>
    <g style="clip-path: url(#clip-path)">
      <path d="M850.7,966.63l-89.19-89.76L576.89,1061.48Z" transform="translate(-115.47 0)" style="fill: url(#linear-gradient)"/>
    </g>
    <g style="clip-path: url(#clip-path)">
      <path d="M392.37,876.8,577,692.18,761.63,876.8,577,1061.42Z" transform="translate(-115.47 0)" style="fill: #45b5e7"/>
    </g>
    <path d="M1084.53,553.73l-323,323.14,323,323.13H715.41L392.28,876.87,715.41,553.73ZM715.41,0,115.47,599.94,300.09,784.56,1084.53,0Z" transform="translate(-115.47 0)" style="fill: url(#radial-gradient)"/>
  </g>
</svg>
