<svg id="Layer_1" data-name="Layer 1" xmlns="http://www.w3.org/2000/svg" viewBox="0 0 1200 1200">
  <title>git</title>
  <path d="M1177.36,546.55,653.43,22.63a77.3,77.3,0,0,0-109.29,0L435.35,131.44l138,138a91.77,91.77,0,0,1,116.22,117l133,133a91.84,91.84,0,1,1-55.08,51.84l-124-124,0,326.45a91.79,91.79,0,1,1-75.6-2.68V441.56A92,92,0,0,1,518,321L381.89,184.89,22.64,544.13a77.32,77.32,0,0,0,0,109.32l523.94,523.92a77.32,77.32,0,0,0,109.31,0l521.48-521.49A77.34,77.34,0,0,0,1177.36,546.55Z" transform="translate(0 0)" style="fill: #f0512b"/>
</svg>
