<?xml version="1.0" encoding="utf-8"?>
<!-- Generator: Adobe Illustrator 22.1.0, SVG Export Plug-In . SVG Version: 6.00 Build 0)  -->
<svg version="1.1" id="Layer_1" xmlns="http://www.w3.org/2000/svg" xmlns:xlink="http://www.w3.org/1999/xlink" x="0px" y="0px"
	 viewBox="0 0 1200 1200" style="enable-background:new 0 0 1200 1200;" xml:space="preserve">
<style type="text/css">
	.st0{fill:#F0512B;}
</style>
<title>git</title>
<path class="st0" d="M1177.4,546.5L653.4,22.6c-30.2-30.2-79.1-30.2-109.3,0L435.4,131.4l138,138c48-16.3,100.1,9.4,116.4,57.4
	c6.6,19.3,6.5,40.3-0.2,59.6l133,133c48-16.5,100.2,9.1,116.7,57c16.5,48-9.1,100.2-57,116.7c-48,16.5-100.2-9.1-116.7-57
	c-7.3-21.1-6.6-44.2,2-64.8l-124-124v326.5c45.4,22.5,64,77.6,41.5,123s-77.6,64-123,41.5s-64-77.6-41.5-123
	c9.9-20,26.8-35.7,47.4-44.2V441.6c-47-19.3-69.4-73.1-50.1-120.1c0.1-0.2,0.1-0.3,0.2-0.5L381.9,184.9L22.6,544.1
	c-30.2,30.2-30.2,79.1,0,109.3l523.9,523.9c30.2,30.2,79.1,30.2,109.3,0l521.5-521.5C1207.5,625.7,1207.5,576.7,1177.4,546.5z"/>
</svg>
