<?xml version="1.0" encoding="utf-8"?>
<!-- Generator: Adobe Illustrator 22.1.0, SVG Export Plug-In . SVG Version: 6.00 Build 0)  -->
<svg version="1.1" id="Layer_1" xmlns="http://www.w3.org/2000/svg" xmlns:xlink="http://www.w3.org/1999/xlink" x="0px" y="0px"
	 viewBox="0 0 1200 1200" style="enable-background:new 0 0 1200 1200;" xml:space="preserve">
<style type="text/css">
	.st0{fill:#000000;}
</style>
<title>github</title>
<g>
	<path class="st0" d="M600,14.8c-331.3,0-600,268.6-600,600c0,265.1,171.9,490,410.3,569.3c30,5.6,41-13,41-28.9
		c0-14.3-0.6-61.6-0.8-111.7c-166.9,36.3-202.1-70.8-202.1-70.8c-27.3-69.4-66.6-87.8-66.6-87.8c-54.4-37.2,4.1-36.5,4.1-36.5
		c60.2,4.2,92,61.8,92,61.8c53.5,91.7,140.4,65.2,174.6,49.9c5.4-38.8,20.9-65.3,38.1-80.2c-133.3-15.1-273.4-66.6-273.4-296.5
		c0-65.5,23.4-119,61.8-161.1c-6.2-15.1-26.8-76.1,5.8-158.8c0,0,50.4-16.1,165,61.5c47.9-13.3,99.2-20,150.2-20.2
		c51,0.2,102.3,6.9,150.3,20.2c114.5-77.6,164.8-61.5,164.8-61.5c32.7,82.6,12.1,143.7,5.9,158.8c38.5,42,61.8,95.5,61.8,161.1
		c0,230.5-140.4,281.2-274,296c21.5,18.6,40.7,55.1,40.7,111.1c0,80.3-0.7,144.9-0.7,164.7c0,16,10.8,34.7,41.2,28.8
		c238.3-79.4,410-304.3,410-569.3C1200,283.5,931.3,14.8,600,14.8L600,14.8z"/>
	<path class="st0" d="M227.3,876.3c-1.3,3-6,3.9-10.3,1.8s-6.8-6-5.4-9s6-3.9,10.3-1.9S228.8,873.3,227.3,876.3L227.3,876.3z
		 M251.6,903.4c-2.9,2.7-8.4,1.4-12.2-2.8s-4.7-9.8-1.8-12.5s8.4-1.4,12.3,2.8S254.6,900.7,251.6,903.4L251.6,903.4z M275.2,937.9
		c-3.7,2.6-9.7,0.2-13.4-5.2s-3.7-11.8,0.1-14.3s9.6-0.3,13.4,5S279,935.3,275.2,937.9L275.2,937.9z M307.6,971.3
		c-3.3,3.7-10.3,2.7-15.4-2.3s-6.7-11.7-3.4-15.3s10.4-2.6,15.5,2.3S311.2,967.7,307.6,971.3L307.6,971.3z M352.3,990.7
		c-1.5,4.7-8.2,6.8-15,4.8s-11.2-7.5-9.8-12.3s8.2-7,15-4.8S353.7,985.9,352.3,990.7z M401.4,994.3c0.2,5-5.6,9-12.7,9.1
		s-13-3.8-13.1-8.7s5.6-9,12.8-9.2S401.5,989.4,401.4,994.3L401.4,994.3z M447.1,986.5c0.9,4.8-4.1,9.8-11.2,11.1
		s-13.4-1.7-14.3-6.5c-0.9-5,4.2-9.9,11.1-11.2S446.2,981.6,447.1,986.5L447.1,986.5z"/>
</g>
</svg>
