<svg id="Layer_1" data-name="Layer 1" xmlns="http://www.w3.org/2000/svg" viewBox="0 0 1200 1170.36">
  <title>github</title>
  <g>
    <path d="M600,14.82c-331.33,0-600,268.61-600,600,0,265.1,171.92,490,410.31,569.34,30,5.56,41-13,41-28.86,0-14.31-.56-61.58-.82-111.71-166.92,36.29-202.14-70.79-202.14-70.79C221.05,903.45,181.72,885,181.72,885c-54.44-37.24,4.11-36.47,4.11-36.47,60.24,4.22,92,61.83,92,61.83,53.52,91.71,140.36,65.2,174.6,49.88,5.39-38.78,20.94-65.26,38.09-80.24C357.23,864.86,217.12,813.4,217.12,583.5c0-65.51,23.45-119,61.83-161.06-6.24-15.1-26.77-76.13,5.81-158.77,0,0,50.37-16.13,165,61.5C497.66,311.87,549,305.18,600,305c51,.23,102.33,6.9,150.29,20.2,114.52-77.63,164.84-61.5,164.84-61.5,32.65,82.63,12.12,143.67,5.89,158.77,38.47,42,61.75,95.55,61.75,161.06,0,230.45-140.36,281.18-274,296,21.53,18.62,40.71,55.14,40.71,111.11,0,80.28-.7,144.89-.7,164.66,0,16,10.81,34.67,41.22,28.78,238.25-79.43,410-304.25,410-569.25,0-331.37-268.65-600-600-600Z" transform="translate(0 -14.82)" style="fill: #231f20"/>
    <path d="M227.25,876.27c-1.32,3-6,3.88-10.28,1.84s-6.81-6-5.4-9,6-3.93,10.33-1.87,6.86,6.06,5.34,9Zm24.3,27.12c-2.85,2.65-8.44,1.42-12.24-2.79s-4.67-9.76-1.76-12.45,8.39-1.4,12.32,2.78,4.69,9.77,1.69,12.47Zm23.67,34.54c-3.68,2.57-9.7.17-13.41-5.16s-3.68-11.76.09-14.31,9.64-.25,13.42,5,3.65,11.82-.1,14.42Zm32.4,33.4C304.34,975,297.33,974,292.2,969s-6.7-11.72-3.41-15.34,10.38-2.62,15.54,2.29,6.82,11.72,3.31,15.33Zm44.71,19.38c-1.46,4.7-8.2,6.84-15,4.83s-11.23-7.55-9.84-12.3,8.18-7,15-4.82S353.74,985.93,352.33,990.71Zm49.11,3.59c.17,5-5.59,9-12.72,9.14s-13-3.85-13.06-8.71,5.64-9.05,12.82-9.19,13,3.85,13,8.75Zm45.69-7.77c.85,4.82-4.11,9.77-11.19,11.1s-13.42-1.71-14.31-6.49c-.85-4.95,4.19-9.91,11.15-11.19s13.45,1.69,14.35,6.59Z" transform="translate(0 -14.82)" style="fill: #231f20"/>
  </g>
</svg>
