<svg id="Layer_1" data-name="Layer 1" xmlns="http://www.w3.org/2000/svg" viewBox="0 0 1200 1200.01">
  <title>js</title>
  <path d="M0,0H1200V1200H0Z" transform="translate(0 0)" style="fill: #f1dc4f"/>
  <path d="M1101.79,913.8c-8.79-54.75-44.49-100.73-150.23-143.61-36.73-16.88-77.68-29-89.88-56.8-4.34-16.2-4.91-25.33-2.17-35.14,7.87-31.82,45.86-41.74,76-32.62,19.39,6.5,37.75,21.45,48.82,45.29,51.78-33.53,51.68-33.31,87.83-56.36-13.23-20.52-20.3-30-29-38.77C1012,561,969.58,543.08,901.72,544.46L866.36,549c-33.87,8.56-66.16,26.34-85.09,50.18-56.81,64.46-40.61,177.26,28.52,223.69C877.89,874,977.92,885.64,990.7,933.43c12.43,58.51-43,77.46-98.1,70.73C852,995.71,829.41,975.07,805,937.54c-44.93,26-44.93,26-91.14,52.58,11,24,22.47,34.8,40.84,55.55,86.92,88.17,304.45,83.84,343.46-49.61C1099.73,991.47,1110.24,960.91,1101.79,913.8ZM652.36,551.52H540.12l-.46,290.18c0,61.72,3.19,118.29-6.85,135.63-16.42,34.11-59,29.88-78.36,23.27-19.74-9.7-29.78-23.5-41.4-43-3.2-5.6-5.59-9.93-6.4-10.27l-91.25,55.89c15.17,31.14,37.52,58.17,66.16,75.73,42.77,25.68,100.26,33.55,160.38,19.74,39.13-11.4,72.89-35,90.57-70.94,25.55-47.12,20.07-104.14,19.84-167.22C652.92,757.64,652.36,654.75,652.36,551.52Z" transform="translate(0 0)" style="fill: #231f20"/>
</svg>
