<?xml version="1.0" encoding="utf-8"?>
<!-- Generator: Adobe Illustrator 22.1.0, SVG Export Plug-In . SVG Version: 6.00 Build 0)  -->
<svg version="1.1" id="Layer_1" xmlns="http://www.w3.org/2000/svg" xmlns:xlink="http://www.w3.org/1999/xlink" x="0px" y="0px"
	 viewBox="0 0 1200 1200" style="enable-background:new 0 0 1200 1200;" xml:space="preserve">
<style type="text/css">
	.st0{fill:#F1DC4F;}
	.st1{fill:#231F20;}
</style>
<title>js</title>
<path class="st0" d="M0,0h1200v1200H0V0z"/>
<path class="st1" d="M1101.8,913.8c-8.8-54.8-44.5-100.7-150.2-143.6c-36.7-16.9-77.7-29-89.9-56.8c-4.3-16.2-4.9-25.3-2.2-35.1
	c7.9-31.8,45.9-41.7,76-32.6c19.4,6.5,37.8,21.5,48.8,45.3c51.8-33.5,51.7-33.3,87.8-56.4c-13.2-20.5-20.3-30-29-38.8
	c-31.2-34.8-73.6-52.7-141.4-51.3l-35.4,4.5c-33.9,8.6-66.2,26.3-85.1,50.2c-56.8,64.5-40.6,177.3,28.5,223.7
	c68.1,51.1,168.1,62.8,180.9,110.6c12.4,58.5-43,77.5-98.1,70.7c-40.6-8.4-63.2-29.1-87.6-66.6c-44.9,26-44.9,26-91.1,52.6
	c11,24,22.5,34.8,40.8,55.6c86.9,88.2,304.5,83.8,343.5-49.6C1099.7,991.5,1110.2,960.9,1101.8,913.8z M652.4,551.5H540.1
	l-0.5,290.2c0,61.7,3.2,118.3-6.8,135.6c-16.4,34.1-59,29.9-78.4,23.3c-19.7-9.7-29.8-23.5-41.4-43c-3.2-5.6-5.6-9.9-6.4-10.3
	l-91.3,55.9c15.2,31.1,37.5,58.2,66.2,75.7c42.8,25.7,100.3,33.6,160.4,19.7c39.1-11.4,72.9-35,90.6-70.9
	c25.5-47.1,20.1-104.1,19.8-167.2C652.9,757.6,652.4,654.8,652.4,551.5z"/>
</svg>
