<svg id="Layer_1" data-name="Layer 1" xmlns="http://www.w3.org/2000/svg" viewBox="0 0 64 44">
  <title>Artboard 1</title>
  <circle cx="32" cy="16" r="16" style="fill: #000000"/>
  <path d="M32,4V6H30a2,2,0,0,0-2,2v4h2v2H28V28H26V14H24V12h2V8s0-4,4-4Z" style="fill: #fff"/>
  <path d="M36,4V24.09A1.9,1.9,0,0,0,38,26h2v2H38s-4,0-4-4V4Z" style="fill: #fff"/>
  <g>
    <path d="M.68,43.9V39.14H0v-.73H.68v-.63a2,2,0,0,1,.4-1.31A1.36,1.36,0,0,1,2.18,36a1.58,1.58,0,0,1,.52.09l0,.75a1.75,1.75,0,0,0-.4,0c-.48,0-.72.36-.72,1.09v.52h.89v.73H1.54V43.9Z" style="fill: #000000"/>
    <path d="M5.19,44a1.86,1.86,0,0,1-1.5-.61,2.69,2.69,0,0,1-.53-1.79v-.67A3.17,3.17,0,0,1,3.67,39a1.65,1.65,0,0,1,1.42-.7,1.59,1.59,0,0,1,1.37.61,3.25,3.25,0,0,1,.46,1.91v.59H4v.13a2.06,2.06,0,0,0,.31,1.28,1.1,1.1,0,0,0,.91.4,1.41,1.41,0,0,0,.67-.15,1.66,1.66,0,0,0,.54-.47l.44.57A1.89,1.89,0,0,1,5.19,44Zm-.1-4.92a.9.9,0,0,0-.79.38A2.46,2.46,0,0,0,4,40.65H6.07v-.12a2.15,2.15,0,0,0-.27-1.12A.8.8,0,0,0,5.09,39.08Z" style="fill: #000000"/>
    <path d="M7.77,40.91A3.48,3.48,0,0,1,8.22,39a1.47,1.47,0,0,1,1.3-.66,1.32,1.32,0,0,1,1.17.64V36.11h.85V43.9h-.78l0-.59A1.34,1.34,0,0,1,9.51,44a1.47,1.47,0,0,1-1.27-.66,3.31,3.31,0,0,1-.47-1.87Zm.85.5a2.64,2.64,0,0,0,.27,1.36.9.9,0,0,0,.85.43,1,1,0,0,0,.95-.67V39.76a1,1,0,0,0-.95-.66.92.92,0,0,0-.85.44,2.79,2.79,0,0,0-.27,1.33Z" style="fill: #000000"/>
    <path d="M14.72,44a1.83,1.83,0,0,1-1.49-.61,2.69,2.69,0,0,1-.53-1.79v-.67A3.17,3.17,0,0,1,13.21,39a1.63,1.63,0,0,1,1.42-.7,1.59,1.59,0,0,1,1.37.61,3.25,3.25,0,0,1,.46,1.91v.59H13.55v.13a2.06,2.06,0,0,0,.31,1.28,1.09,1.09,0,0,0,.91.4,1.47,1.47,0,0,0,.67-.15,1.54,1.54,0,0,0,.53-.47l.45.57A1.91,1.91,0,0,1,14.72,44Zm-.09-4.92a.89.89,0,0,0-.79.38,2.35,2.35,0,0,0-.29,1.19h2.06v-.12a2.15,2.15,0,0,0-.27-1.12A.81.81,0,0,0,14.63,39.08Z" style="fill: #000000"/>
    <path d="M19.64,39.25a2.17,2.17,0,0,0-.38,0,.94.94,0,0,0-.92.75V43.9h-.85V38.41h.83V39a1.06,1.06,0,0,1,1-.66.69.69,0,0,1,.34.07Z" style="fill: #000000"/>
    <path d="M21.48,37a.58.58,0,0,1-.12.38.41.41,0,0,1-.36.16.44.44,0,0,1-.37-.16.58.58,0,0,1-.12-.38.6.6,0,0,1,.12-.38.44.44,0,0,1,.37-.16.41.41,0,0,1,.36.16A.62.62,0,0,1,21.48,37Zm-.06,6.95h-.86V38.41h.86Z" style="fill: #000000"/>
    <path d="M24.58,43.23a.9.9,0,0,0,.68-.27,1.25,1.25,0,0,0,.28-.79h.8a1.9,1.9,0,0,1-.53,1.31,1.65,1.65,0,0,1-1.23.52,1.75,1.75,0,0,1-1.48-.64,3,3,0,0,1-.51-1.91v-.61a3,3,0,0,1,.5-1.89,1.77,1.77,0,0,1,1.48-.64,1.62,1.62,0,0,1,1.27.53,2.22,2.22,0,0,1,.5,1.46h-.8a1.62,1.62,0,0,0-.28-.92.86.86,0,0,0-.69-.3,1,1,0,0,0-.84.39,2.31,2.31,0,0,0-.29,1.29v.7a2.54,2.54,0,0,0,.27,1.37A1,1,0,0,0,24.58,43.23Z" style="fill: #000000"/>
    <path d="M27.15,40.9A2.93,2.93,0,0,1,27.7,39a1.89,1.89,0,0,1,2.92,0,2.9,2.9,0,0,1,.57,1.85v.58a3,3,0,0,1-.55,1.89,1.79,1.79,0,0,1-1.47.69,1.77,1.77,0,0,1-1.45-.67,2.86,2.86,0,0,1-.57-1.83Zm.85.52a2.42,2.42,0,0,0,.32,1.33,1,1,0,0,0,.85.48c.76,0,1.14-.57,1.17-1.71V40.9A2.45,2.45,0,0,0,30,39.57a1,1,0,0,0-.86-.49,1,1,0,0,0-.84.49A2.45,2.45,0,0,0,28,40.9Z" style="fill: #000000"/>
    <path d="M33.21,43.9h-.85V36.11h.85Z" style="fill: #000000"/>
    <path d="M36.43,44a1.86,1.86,0,0,1-1.5-.61,2.69,2.69,0,0,1-.53-1.79v-.67A3.17,3.17,0,0,1,34.91,39a1.65,1.65,0,0,1,1.42-.7,1.59,1.59,0,0,1,1.37.61,3.25,3.25,0,0,1,.46,1.91v.59H35.25v.13a2.06,2.06,0,0,0,.31,1.28,1.09,1.09,0,0,0,.91.4,1.41,1.41,0,0,0,.67-.15,1.66,1.66,0,0,0,.54-.47l.44.57A1.89,1.89,0,0,1,36.43,44Zm-.1-4.92a.9.9,0,0,0-.79.38,2.35,2.35,0,0,0-.29,1.19h2.06v-.12A2.15,2.15,0,0,0,37,39.41.8.8,0,0,0,36.33,39.08Z" style="fill: #000000"/>
    <path d="M40.18,37a.58.58,0,0,1-.12.38.43.43,0,0,1-.37.16.41.41,0,0,1-.36-.16.58.58,0,0,1-.12-.38.6.6,0,0,1,.12-.38.49.49,0,0,1,.72,0A.57.57,0,0,1,40.18,37Zm-.07,6.95h-.85V38.41h.85Z" style="fill: #000000"/>
    <path d="M42.94,42.53l1-4.12h.86L43.24,43.9h-.63L41,38.41h.87Z" style="fill: #000000"/>
    <path d="M48.3,43.9a2.06,2.06,0,0,1-.11-.6A1.34,1.34,0,0,1,47,44a1.47,1.47,0,0,1-1.11-.42,1.67,1.67,0,0,1-.4-1.18,1.71,1.71,0,0,1,.54-1.33,2.2,2.2,0,0,1,1.49-.5h.63V40a1,1,0,0,0-.21-.7.87.87,0,0,0-.64-.21.84.84,0,0,0-.62.24.82.82,0,0,0-.24.61h-.86a1.47,1.47,0,0,1,.24-.8,1.65,1.65,0,0,1,.63-.6,1.82,1.82,0,0,1,.9-.22A1.47,1.47,0,0,1,49,40v2.77a3.58,3.58,0,0,0,.17,1.1v.08Zm-1.14-.72a1.11,1.11,0,0,0,.6-.18,1.09,1.09,0,0,0,.42-.46v-1.3h-.49a1.56,1.56,0,0,0-1,.28,1,1,0,0,0-.35.78,1,1,0,0,0,.18.67A.75.75,0,0,0,47.16,43.18Z" style="fill: #000000"/>
    <path d="M50.41,43.41a.61.61,0,0,1,.13-.41.52.52,0,0,1,.42-.16.5.5,0,0,1,.41.16.58.58,0,0,1,.15.41.56.56,0,0,1-.15.39A.53.53,0,0,1,51,44a.55.55,0,0,1-.42-.15A.59.59,0,0,1,50.41,43.41Z" style="fill: #000000"/>
    <path d="M53.76,38.41l0,.51A1.52,1.52,0,0,1,55,38.31a1.23,1.23,0,0,1,1.22.79,1.53,1.53,0,0,1,1.37-.79c1,0,1.46.63,1.48,1.89v3.7h-.85V40.29a1.6,1.6,0,0,0-.2-.89.78.78,0,0,0-.69-.3.76.76,0,0,0-.63.32,1.53,1.53,0,0,0-.28.8V43.9H55.6V40.25c0-.76-.3-1.15-.88-1.15a.93.93,0,0,0-.91.68V43.9H53V38.41Z" style="fill: #000000"/>
    <path d="M62.26,44a1.86,1.86,0,0,1-1.5-.61,2.81,2.81,0,0,1-.53-1.79v-.67A3.17,3.17,0,0,1,60.74,39a1.66,1.66,0,0,1,1.42-.7,1.61,1.61,0,0,1,1.38.61A3.33,3.33,0,0,1,64,40.83v.59H61.08v.13a2.05,2.05,0,0,0,.32,1.28,1.08,1.08,0,0,0,.91.4,1.4,1.4,0,0,0,.66-.15,1.57,1.57,0,0,0,.54-.47l.45.57A1.91,1.91,0,0,1,62.26,44Zm-.1-4.92a.88.88,0,0,0-.78.38,2.35,2.35,0,0,0-.29,1.19h2.06v-.12a2.37,2.37,0,0,0-.27-1.12A.83.83,0,0,0,62.16,39.08Z" style="fill: #000000"/>
  </g>
</svg>
