<svg id="Layer_1" data-name="Layer 1" xmlns="http://www.w3.org/2000/svg" viewBox="0 0 1200 1200">
  <title>logo-structurize</title>
  <g>
    <path d="M156.5,622.81a9.41,9.41,0,0,0-3.86-8q-3.87-2.88-13.58-5.95a136.49,136.49,0,0,1-15.88-5.94q-20.06-9.28-20.06-25.52a22,22,0,0,1,5-14.26q5-6.18,14.14-9.62a57.92,57.92,0,0,1,20.56-3.44,50.63,50.63,0,0,1,20,3.74,31.28,31.28,0,0,1,13.72,10.65,26.69,26.69,0,0,1,4.89,15.8H156.57q0-5.94-3.86-9.22t-10.46-3.27q-6.66,0-10.52,2.77a8.37,8.37,0,0,0-3.87,7.05q0,3.74,4.26,6.78t14.95,6.28a95.19,95.19,0,0,1,17.59,7q16.72,9.09,16.73,25,0,12.77-10.21,20t-28,7.28a58.48,58.48,0,0,1-22.72-4.24q-10.17-4.25-15.31-11.63a29,29,0,0,1-5.14-17h25q0,7.82,4.29,11.53t13.93,3.7q6.18,0,9.75-2.5A8.1,8.1,0,0,0,156.5,622.81Z" style="fill: #000"/>
    <path d="M279.54,569.51h-31v79.15H223.67V569.51H193.26V551.4h86.28Z" style="fill: #000"/>
    <path d="M332.74,614.26H319.27v34.4H294.39V551.4H335q18.36,0,28.71,7.68t10.35,21.68q0,10.15-4.36,16.82t-13.65,10.81l21.56,39.27v1H351Zm-13.47-18H335q7.08,0,10.67-3.52t3.58-9.81q0-6.3-3.62-9.88T335,569.44H319.27Z" style="fill: #000"/>
    <path d="M474.42,551.4v63.66a34.94,34.94,0,0,1-4.89,18.74,31,31,0,0,1-14,12.06Q446.34,650,433.87,650q-18.87,0-29.71-9.22T393.1,615.53V551.4h25V616q.42,16,15.74,16,7.72,0,11.69-4t4-13V551.4Z" style="fill: #000"/>
    <path d="M577.81,615.73A34,34,0,0,1,572,633.67a34.47,34.47,0,0,1-14.92,12.05A53.32,53.32,0,0,1,535.14,650q-20.35,0-32.05-12.49t-11.7-35.27v-4.81q0-14.29,5.28-25a38.45,38.45,0,0,1,15.21-16.56,44.39,44.39,0,0,1,23-5.85q18.79,0,30.2,9.32T578,585H553.21q-.29-8.88-4.75-12.76t-13.61-3.87q-9.29,0-13.61,6.55t-4.54,20.9v6.89q0,15.56,4.15,22.24t14.29,6.68c5.71,0,10.09-1.27,13.11-3.81s4.63-6.57,4.82-12.09Z" style="fill: #000"/>
    <path d="M672.92,569.51h-31v79.15H617.05V569.51H586.64V551.4h86.28Z" style="fill: #000"/>
    <path d="M768.72,551.4v63.66a34.94,34.94,0,0,1-4.89,18.74,31.07,31.07,0,0,1-14,12.06Q740.65,650,728.17,650q-18.85,0-29.7-9.22t-11.06-25.25V551.4h25V616q.44,16,15.74,16,7.73,0,11.7-4t4-13V551.4Z" style="fill: #000"/>
    <path d="M827,614.26H813.49v34.4H788.61V551.4h40.62q18.36,0,28.71,7.68t10.35,21.68q0,10.15-4.36,16.82t-13.64,10.81l21.55,39.27v1H845.18Zm-13.47-18h15.74q7.1,0,10.67-3.52t3.58-9.81q0-6.3-3.62-9.88t-10.63-3.58H813.49Z" style="fill: #000"/>
    <path d="M914.19,648.66H889.38V551.4h24.81Z" style="fill: #000"/>
    <path d="M963.78,630.63h49.34v18H932.73V636.31l49.2-66.8H932.44V551.4h80.19v12Z" style="fill: #000"/>
    <path d="M1092.77,607.38h-39.14v23.25h46.23v18h-71.11V551.4H1100v18.11h-46.37V590h39.14Z" style="fill: #000"/>
  </g>
  <g>
    <line x1="117.5" y1="400" x2="1080.5" y2="400" style="fill: none;stroke: #000;stroke-miterlimit: 10;stroke-width: 25px"/>
    <line x1="600" y1="100" x2="600" y2="400" style="fill: none;stroke: #000;stroke-miterlimit: 10;stroke-width: 25px"/>
    <line x1="800" y1="116.5" x2="800" y2="500" style="fill: none;stroke: #000;stroke-miterlimit: 10;stroke-width: 25px"/>
    <line x1="800" y1="400" x2="609.54" y2="114.31" style="fill: none;stroke: #000;stroke-miterlimit: 10;stroke-width: 25px"/>
    <path d="M789.64,125,1075,410.36V475H125V410.36L410.36,125H789.64M800,100H400L100,400V500H1100V400L800,100Z" style="fill: #000"/>
    <line x1="600" y1="400" x2="689.25" y2="489.25" style="fill: none;stroke: #000;stroke-miterlimit: 10;stroke-width: 25px"/>
    <line x1="400" y1="116.5" x2="400" y2="500" style="fill: none;stroke: #000;stroke-miterlimit: 10;stroke-width: 25px"/>
    <line x1="400" y1="400" x2="590.46" y2="114.31" style="fill: none;stroke: #000;stroke-miterlimit: 10;stroke-width: 25px"/>
    <line x1="600" y1="400" x2="510.75" y2="489.25" style="fill: none;stroke: #000;stroke-miterlimit: 10;stroke-width: 25px"/>
  </g>
  <g>
    <line x1="1082.5" y1="800" x2="119.5" y2="800" style="fill: none;stroke: #000;stroke-miterlimit: 10;stroke-width: 25px"/>
    <line x1="600" y1="1100" x2="600" y2="800" style="fill: none;stroke: #000;stroke-miterlimit: 10;stroke-width: 25px"/>
    <line x1="400" y1="1083.5" x2="400" y2="700" style="fill: none;stroke: #000;stroke-miterlimit: 10;stroke-width: 25px"/>
    <line x1="400" y1="800" x2="590.46" y2="1085.69" style="fill: none;stroke: #000;stroke-miterlimit: 10;stroke-width: 25px"/>
    <path d="M1075,725v64.64L789.64,1075H410.36L125,789.64V725h950m25-25H100V800l300,300H800l300-300V700Z" style="fill: #000"/>
    <line x1="600" y1="800" x2="510.75" y2="710.75" style="fill: none;stroke: #000;stroke-miterlimit: 10;stroke-width: 25px"/>
    <line x1="800" y1="1083.5" x2="800" y2="700" style="fill: none;stroke: #000;stroke-miterlimit: 10;stroke-width: 25px"/>
    <line x1="800" y1="800" x2="609.54" y2="1085.69" style="fill: none;stroke: #000;stroke-miterlimit: 10;stroke-width: 25px"/>
    <line x1="600" y1="800" x2="689.25" y2="710.75" style="fill: none;stroke: #000;stroke-miterlimit: 10;stroke-width: 25px"/>
  </g>
</svg>
