<svg id="Layer_1" data-name="Layer 1" xmlns="http://www.w3.org/2000/svg" viewBox="0 0 1200 1200">
  <title>Artboard 1</title>
  <g>
    <path d="M304.2,478,187,507.17V626.73L114.3,644.82V344.68L316,294.49v55.86L187,382.46v69.05L304.2,422.35Z" style="fill: #000"/>
    <path d="M477.73,498.31,378.12,523.1l-17.39,60.39-77.66,19.33L393.66,275.16l68.33-17L573.4,530.57,495.33,550ZM395.52,462.9l64.81-16.13-32.51-96Z" style="fill: #000"/>
    <path d="M750.87,406.63q0-15.87-11.29-21.93t-39.65-8.48q-28.38-2.42-46.39-6.8-58.6-14.07-58.6-64.16,0-24.94,14.6-47.64t41.31-40a197.56,197.56,0,0,1,60-25.56q32.52-8.09,58.3-3T809.27,212q14.28,17.78,14.29,45.19l-72.48,18q0-18.34-11.29-25.64t-30.54-2.5q-19.47,4.85-30.76,16.21t-11.28,24.55q0,11.55,12.42,17.83t43.7,8.51q31.26,2.22,51.35,8.76,48.87,15.87,48.88,65.14,0,39.38-29.82,69.26t-81.8,42.82q-36.66,9.14-66.37,3.43T600.84,478.9q-15-19-15-48.72L658.72,412q0,24.12,12.53,32.44t40.69,1.31q18-4.47,28.47-14.81T750.87,406.63Z" style="fill: #000"/>
    <path d="M1097.52,155.86,1007,178.38V422.66l-72.69,18.08V196.47l-88.83,22.11V162.72l252-62.72Z" style="fill: #000"/>
    <path d="M215.92,838.77q0-11.07-7.88-15.29t-27.66-5.92A220.93,220.93,0,0,1,148,812.82q-40.87-9.83-40.88-44.77,0-17.4,10.18-33.24t28.83-27.88A137.89,137.89,0,0,1,188,689.1q22.68-5.65,40.67-2.07t28,16q10,12.4,10,31.53l-50.57,12.59q0-12.79-7.87-17.89t-21.31-1.74q-13.59,3.38-21.46,11.3t-7.87,17.14q0,8.05,8.67,12.44t30.48,5.93q21.81,1.55,35.83,6.11,34.1,11.07,34.1,45.45,0,27.46-20.81,48.32t-57.06,29.88q-25.57,6.36-46.31,2.39T111.24,889.2q-10.47-13.28-10.47-34l50.86-12.66q0,16.83,8.74,22.63t28.39.92q12.57-3.14,19.86-10.34A23.1,23.1,0,0,0,215.92,838.77Z" style="fill: #000"/>
    <path d="M457.77,663.82l-63.14,15.71V850l-50.71,12.62V692.15l-62,15.43v-39l175.83-43.75Z" style="fill: #000"/>
    <path d="M581.3,764.39l-69.5,17.29-12.13,42.14L445.49,837.3l77.15-228.6,47.68-11.86,77.72,190-54.46,13.56Zm-57.36-24.7,45.22-11.26-22.68-67Z" style="fill: #000"/>
    <path d="M811.16,575.88,748,591.59V762l-50.71,12.62V604.21l-62,15.42v-39L811.16,536.9Z" style="fill: #000"/>
    <path d="M886.57,727.53,836,740.12V530.72l50.56-12.58Z" style="fill: #000"/>
    <path d="M1092,605.5a93.17,93.17,0,0,1-11.85,41.57,102.78,102.78,0,0,1-30.41,33.52A129.17,129.17,0,0,1,1005,700.93q-41.46,10.32-65.3-10.65t-23.84-70V609.93q0-30.78,10.76-56.54a115.92,115.92,0,0,1,31-43.38,111.13,111.13,0,0,1,46.81-24.23q38.3-9.52,61.55,4.74t26.44,48.72l-50.57,12.58q-.57-19-9.68-25.06t-27.74-1.43q-18.93,4.71-27.74,21t-9.24,47.32v14.81q0,33.51,8.45,45.79t29.11,7.14q17.48-4.35,26.73-14.85t9.82-28.48Z" style="fill: #000"/>
    <path d="M100,1100V988.32l40.3-10q21.64-5.38,32.94-.29t11.29,20.12a31.7,31.7,0,0,1-4,15.8,33.43,33.43,0,0,1-11.79,12q8.79.1,13.49,5.23t4.7,14.17q0,16.41-10.44,27.26t-30.94,16.1Zm27.05-71.85,14.1-3.51q8.85-2.28,12.63-6.38a14.5,14.5,0,0,0,3.78-10.24q0-7.08-4.08-9.18T140.3,999l-13.25,3.3Zm0,17.64v26.77l17.72-4.41q7.32-1.82,11.25-6.14a14.85,14.85,0,0,0,3.93-10.37q0-14-13.95-10.57Z" style="fill: #000"/>
    <path d="M296.79,997.49a76.07,76.07,0,0,1-6.08,30.43,64,64,0,0,1-17.3,23.67,61.8,61.8,0,0,1-25.54,13.15q-14.34,3.55-25.43-.23a31.31,31.31,0,0,1-17.3-14.45q-6.21-10.65-6.51-26.38v-6.29a76.09,76.09,0,0,1,6.05-30.46A64,64,0,0,1,222,963.25,62.24,62.24,0,0,1,247.71,950q14.25-3.56,25.43.42a31.8,31.8,0,0,1,17.37,14.89q6.21,10.92,6.28,27Zm-27.5,2.16q0-16.64-5.59-23.88t-16-4.65q-20.34,5.07-21.5,35.73l-.07,8.22q0,16.42,5.47,23.88t16.26,4.77q10.25-2.55,15.79-12.6t5.63-26.33Z" style="fill: #000"/>
    <path d="M339.56,1040.38l-27,6.71V935.42l27-6.71Z" style="fill: #000"/>
    <path d="M385.41,1008.26l47.08-11.71v20.71l-74.13,18.44V924l27.05-6.73Z" style="fill: #000"/>
    <path d="M513.47,949.7l-42.53,10.59V987l50.23-12.5v20.71l-77.28,19.23V902.74l77.44-19.27v20.79L470.94,916.8v23.54l42.53-10.58Z" style="fill: #000"/>
    <path d="M573.88,942.57l-14.64,3.64v39.5l-27,6.73V880.77l44.15-11q20-5,31.21,1t11.25,22.11a42.67,42.67,0,0,1-4.74,20.48q-4.74,8.85-14.83,16.11l23.42,39.26v1.15l-29,7.21ZM559.24,925.5l17.1-4.25q7.71-1.92,11.6-6.93a19.33,19.33,0,0,0,3.89-12.23q0-7.23-3.93-10.36t-11.56-1.24l-17.1,4.26Z" style="fill: #000"/>
    <path d="M662.18,922.2v37.9l-27,6.73V855.15L679.9,844q12.87-3.21,22.77-1t15.34,9.6q5.43,7.37,5.43,18.4,0,16.35-11.75,29t-32.25,17.81Zm0-20.78L679.9,897q7.86-2,12-6.9A18.23,18.23,0,0,0,696,878q0-7.81-4.24-11.44t-11.56-1.88l-18,4.48Z" style="fill: #000"/>
    <path d="M764.89,913.82,812,902.11v20.71l-74.12,18.44V829.59l27-6.73Z" style="fill: #000"/>
    <path d="M888.57,882.89l-37.07,9.23L845,914.59l-28.89,7.19,41.14-121.92,25.43-6.32L924.16,894.9l-29,7.23ZM858,869.72l24.11-6L870,828Z" style="fill: #000"/>
    <path d="M1011.16,782.36l-33.67,8.38v90.89l-27,6.73V797.47l-33.06,8.22V784.91l93.78-23.34Z" style="fill: #000"/>
    <path d="M1092.14,805.69l-42.53,10.59V843l50.24-12.5v20.71l-77.29,19.23V758.73L1100,739.46v20.79l-50.39,12.54v23.55l42.53-10.59Z" style="fill: #000"/>
  </g>
  <path d="M0,0V321.54L1200,0Z" style="fill: #000"/>
  <path d="M1200,1200V878.46L0,1200Z" style="fill: #000"/>
</svg>
