<svg id="Layer_1" data-name="Layer 1" xmlns="http://www.w3.org/2000/svg" viewBox="0 0 1200 1200">
  <title>Artboard 1</title>
  <g>
    <path d="M145.88,629.25a7.21,7.21,0,0,0-3.74-6.55c-2.5-1.49-6.64-2.82-12.42-4a66.66,66.66,0,0,1-14.47-4.36q-12.73-5.82-12.73-16.86,0-9.25,8.25-15.46t21-6.22q13.56,0,21.92,6.35A19.72,19.72,0,0,1,162,598.65H145a9.66,9.66,0,0,0-3.64-7.7q-3.63-3.08-9.65-3.08a15.72,15.72,0,0,0-9.13,2.45,7.59,7.59,0,0,0-3.53,6.54,6.42,6.42,0,0,0,3.29,5.75q3.28,2.05,13.29,4.13a65.47,65.47,0,0,1,15.7,5,21.9,21.9,0,0,1,8.46,6.91,16.86,16.86,0,0,1,2.76,9.78q0,9.65-8.46,15.63T132,650a41.12,41.12,0,0,1-16.57-3.17,27,27,0,0,1-11.33-8.73,19.85,19.85,0,0,1-4.06-12h16.5a11.14,11.14,0,0,0,4.55,8.76q4.2,3.08,11.12,3.07,6.72,0,10.21-2.41A7.36,7.36,0,0,0,145.88,629.25Z" style="fill: #000000"/>
    <path d="M203,559.78v17.38h13.36v11.9H203V629c0,2.73.57,4.71,1.72,5.92s3.18,1.82,6.12,1.82a27.05,27.05,0,0,0,5.94-.67v12.43A44.28,44.28,0,0,1,205.56,650Q186,650,186,629.58V589.06H173.53v-11.9H186V559.78Z" style="fill: #000000"/>
    <path d="M273.22,591.84a44.8,44.8,0,0,0-6.92-.53q-11.69,0-15.74,8.46v48.91h-17V577.16h16.22l.42,8q6.15-9.31,17.06-9.32a16.7,16.7,0,0,1,6,.93Z" style="fill: #000000"/>
    <path d="M334.09,641.67Q326.61,650,312.83,650q-12.3,0-18.64-6.81t-6.32-19.69V577.16h17V623.3q0,13.62,12,13.61,12.38,0,16.71-8.39V577.16h17v71.52h-16Z" style="fill: #000000"/>
    <path d="M403.22,637.18a15.91,15.91,0,0,0,10.56-3.51,11.68,11.68,0,0,0,4.47-8.65h16a22.79,22.79,0,0,1-4.41,12.46,28.54,28.54,0,0,1-11.19,9.15A34.89,34.89,0,0,1,403.43,650q-15.89,0-25.18-9.72T369,613.45V611.8q0-16.34,9.23-26.14t25.18-9.82q13.5,0,22,7.44t8.92,19.53h-16a14.25,14.25,0,0,0-4.44-10.11,14.69,14.69,0,0,0-10.59-4q-8.25,0-12.73,5.65t-4.55,17.15v2.58q0,11.64,4.44,17.35T403.22,637.18Z" style="fill: #000000"/>
    <path d="M472.69,559.78v17.38h13.36v11.9H472.69V629c0,2.73.57,4.71,1.72,5.92s3.18,1.82,6.12,1.82a27.12,27.12,0,0,0,5.94-.67v12.43A44.28,44.28,0,0,1,475.28,650q-19.57,0-19.58-20.42V589.06H443.25v-11.9H455.7V559.78Z" style="fill: #000000"/>
    <path d="M549.16,641.67Q541.67,650,527.9,650q-12.3,0-18.64-6.81t-6.32-19.69V577.16h17V623.3q0,13.62,12,13.61,12.38,0,16.71-8.39V577.16h17v71.52h-16Z" style="fill: #000000"/>
    <path d="M626.82,591.84a44.8,44.8,0,0,0-6.92-.53q-11.68,0-15.74,8.46v48.91h-17V577.16h16.22l.42,8q6.15-9.31,17.07-9.32a16.68,16.68,0,0,1,6,.93Z" style="fill: #000000"/>
    <path d="M641.89,558.59a8.25,8.25,0,0,1,2.48-6.14q2.48-2.44,7.1-2.45t7.13,2.45a8.2,8.2,0,0,1,2.52,6.14,8,8,0,0,1-2.52,6q-2.52,2.42-7.13,2.41t-7.1-2.41A8.06,8.06,0,0,1,641.89,558.59Zm18,90.09h-17V577.16h17Z" style="fill: #000000"/>
    <path d="M700.87,635.86h40.28v12.82h-61.4V638.17l38.4-48h-37.7v-13h59.24v10.18Z" style="fill: #000000"/>
    <path d="M791.26,650q-16.15,0-26.19-9.62t-10-25.61v-2a41,41,0,0,1,4.37-19.14,32.11,32.11,0,0,1,12.28-13.11,33.82,33.82,0,0,1,17.62-4.7q15.45,0,23.88,9.32t8.43,26.37V618H772.17q.76,8.87,6.26,14a19.37,19.37,0,0,0,13.81,5.16,23.52,23.52,0,0,0,19-8.92l9.16,8.26a30.09,30.09,0,0,1-12.13,9.94A39.82,39.82,0,0,1,791.26,650Zm-2-61.27a14.67,14.67,0,0,0-11.29,4.63q-4.31,4.62-5.49,12.89h32.38v-1.19q-.57-8.07-4.55-12.2T789.23,588.73Z" style="fill: #000000"/>
    <path d="M849.68,631.76q4.76,0,7.35,2.54a8.61,8.61,0,0,1,2.58,6.38,8.32,8.32,0,0,1-2.58,6.25q-2.6,2.48-7.35,2.48a10.22,10.22,0,0,1-7.2-2.45,8.15,8.15,0,0,1-2.66-6.28,8.62,8.62,0,0,1,2.59-6.38C844.13,632.61,846.56,631.76,849.68,631.76Z" style="fill: #000000"/>
    <path d="M914.47,637.18A15.89,15.89,0,0,0,925,633.67a11.73,11.73,0,0,0,4.48-8.65h16a22.7,22.7,0,0,1-4.4,12.46,28.54,28.54,0,0,1-11.19,9.15A34.91,34.91,0,0,1,914.68,650q-15.87,0-25.17-9.72t-9.3-26.83V611.8q0-16.34,9.23-26.14t25.17-9.82q13.5,0,22,7.44t8.91,19.53h-16a14.33,14.33,0,0,0-4.44-10.11,14.73,14.73,0,0,0-10.6-4q-8.25,0-12.73,5.65t-4.54,17.15v2.58q0,11.64,4.44,17.35T914.47,637.18Z" style="fill: #000000"/>
    <path d="M1005.07,629.25a7.21,7.21,0,0,0-3.74-6.55c-2.5-1.49-6.64-2.82-12.42-4a66.83,66.83,0,0,1-14.47-4.36q-12.74-5.82-12.73-16.86,0-9.25,8.25-15.46t21-6.22q13.57,0,21.93,6.35a19.74,19.74,0,0,1,8.35,16.46h-17a9.64,9.64,0,0,0-3.64-7.7q-3.63-3.08-9.65-3.08a15.67,15.67,0,0,0-9.12,2.45,7.58,7.58,0,0,0-3.54,6.54,6.42,6.42,0,0,0,3.29,5.75q3.28,2.05,13.29,4.13a65.32,65.32,0,0,1,15.7,5,21.9,21.9,0,0,1,8.46,6.91,16.86,16.86,0,0,1,2.76,9.78q0,9.65-8.46,15.63t-22.17,6a41.15,41.15,0,0,1-16.57-3.17,27,27,0,0,1-11.33-8.73,19.85,19.85,0,0,1-4.06-12H975.7a11.13,11.13,0,0,0,4.54,8.76q4.2,3.08,11.12,3.07,6.72,0,10.21-2.41A7.36,7.36,0,0,0,1005.07,629.25Z" style="fill: #000000"/>
    <path d="M1083.29,629.25a7.2,7.2,0,0,0-3.75-6.55c-2.49-1.49-6.63-2.82-12.41-4a66.94,66.94,0,0,1-14.48-4.36q-12.72-5.82-12.72-16.86,0-9.25,8.25-15.46t21-6.22q13.56,0,21.92,6.35t8.36,16.46h-17a9.66,9.66,0,0,0-3.64-7.7q-3.63-3.08-9.65-3.08a15.72,15.72,0,0,0-9.13,2.45,7.59,7.59,0,0,0-3.53,6.54,6.42,6.42,0,0,0,3.29,5.75q3.29,2.05,13.29,4.13a65.62,65.62,0,0,1,15.7,5,22,22,0,0,1,8.46,6.91,16.86,16.86,0,0,1,2.76,9.78q0,9.65-8.46,15.63t-22.17,6a41.2,41.2,0,0,1-16.58-3.17,27,27,0,0,1-11.32-8.73,19.85,19.85,0,0,1-4.06-12h16.5a11.14,11.14,0,0,0,4.55,8.76q4.2,3.08,11.12,3.07,6.7,0,10.21-2.41A7.36,7.36,0,0,0,1083.29,629.25Z" style="fill: #000000"/>
  </g>
  <g>
    <line x1="100" y1="400" x2="1100" y2="400" style="fill: none;stroke: #000000;stroke-miterlimit: 10;stroke-width: 15px"/>
    <line x1="600" y1="100" x2="600" y2="400" style="fill: none;stroke: #000000;stroke-miterlimit: 10;stroke-width: 15px"/>
    <line x1="800" y1="100" x2="800" y2="500" style="fill: none;stroke: #000000;stroke-miterlimit: 10;stroke-width: 15px"/>
    <line x1="400" y1="100" x2="400" y2="500" style="fill: none;stroke: #000000;stroke-miterlimit: 10;stroke-width: 15px"/>
    <line x1="600" y1="100" x2="400" y2="400" style="fill: none;stroke: #000000;stroke-miterlimit: 10;stroke-width: 15px"/>
    <line x1="800" y1="400" x2="600" y2="100" style="fill: none;stroke: #000000;stroke-miterlimit: 10;stroke-width: 15px"/>
    <polygon points="1100 400 800 100 400 100 100 400 100 500 1100 500 1100 400" style="fill: none;stroke: #000000;stroke-miterlimit: 10;stroke-width: 15px"/>
    <line x1="600" y1="400" x2="700" y2="500" style="fill: none;stroke: #000000;stroke-miterlimit: 10;stroke-width: 15px"/>
    <line x1="600" y1="400" x2="500" y2="500" style="fill: none;stroke: #000000;stroke-miterlimit: 10;stroke-width: 15px"/>
  </g>
  <g>
    <line x1="1100" y1="800" x2="100" y2="800" style="fill: none;stroke: #000000;stroke-miterlimit: 10;stroke-width: 15px"/>
    <line x1="600" y1="1100" x2="600" y2="800" style="fill: none;stroke: #000000;stroke-miterlimit: 10;stroke-width: 15px"/>
    <line x1="400" y1="1100" x2="400" y2="700" style="fill: none;stroke: #000000;stroke-miterlimit: 10;stroke-width: 15px"/>
    <line x1="800" y1="1100" x2="800" y2="700" style="fill: none;stroke: #000000;stroke-miterlimit: 10;stroke-width: 15px"/>
    <line x1="600" y1="1100" x2="800" y2="800" style="fill: none;stroke: #000000;stroke-miterlimit: 10;stroke-width: 15px"/>
    <line x1="400" y1="800" x2="600" y2="1100" style="fill: none;stroke: #000000;stroke-miterlimit: 10;stroke-width: 15px"/>
    <polygon points="100 800 400 1100 800 1100 1100 800 1100 700 100 700 100 800" style="fill: none;stroke: #000000;stroke-miterlimit: 10;stroke-width: 15px"/>
    <line x1="600" y1="800" x2="500" y2="700" style="fill: none;stroke: #000000;stroke-miterlimit: 10;stroke-width: 15px"/>
    <line x1="600" y1="800" x2="700" y2="700" style="fill: none;stroke: #000000;stroke-miterlimit: 10;stroke-width: 15px"/>
  </g>
</svg>
