<svg id="Layer_1" data-name="Layer 1" xmlns="http://www.w3.org/2000/svg" viewBox="0 0 1200 1200">
  <title>Artboard 1</title>
  <g>
    <path d="M283.63,279.68H170.29V396H100V104H295v54.35H170.29v67.17H283.63Z" style="fill: #000"/>
    <path d="M476.05,341.44H379.73L362.9,396H287.81L394.74,104h66.09L568.56,396H493.07Zm-79.5-54.34h62.68L427.79,185.83Z" style="fill: #000"/>
    <path d="M752.48,318.38q0-15.44-10.92-24.06t-38.34-17.85q-27.44-9.23-44.86-17.85-56.67-27.87-56.67-76.6,0-24.27,14.12-42.82t40-28.87Q681.59,100,713.83,100q31.44,0,56.37,11.23t38.75,32q13.81,20.75,13.82,47.42H752.68q0-17.85-10.92-27.67t-29.53-9.83q-18.83,0-29.74,8.32t-10.91,21.16q0,11.24,12,20.35t42.25,18.85q30.24,9.74,49.67,21Q822.76,270,822.77,318q0,38.31-28.84,60.16T714.83,400q-35.45,0-64.18-12.73t-43.25-34.9q-14.52-22.15-14.52-51h70.49q0,23.46,12.11,34.59t39.35,11.13q17.43,0,27.54-7.52T752.48,318.38Z" style="fill: #000"/>
    <path d="M1100,158.36h-87.51V396H942.2V158.36H856.3V104H1100Z" style="fill: #000"/>
  </g>
  <g>
    <path d="M211.14,595.62q0-10.27-7.6-16t-26.7-11.89a261.59,261.59,0,0,1-31.24-11.89q-39.46-18.57-39.46-51A44.5,44.5,0,0,1,116,476.25q9.82-12.36,27.82-19.24t40.44-6.88q21.89,0,39.25,7.49t27,21.3a54,54,0,0,1,9.62,31.6h-48.8q0-11.88-7.6-18.44t-20.57-6.54q-13.11,0-20.71,5.54t-7.6,14.1q0,7.48,8.37,13.56t29.42,12.56q21.06,6.48,34.59,14,32.9,18.16,32.9,50.1,0,25.51-20.08,40.08T184.92,650q-24.67,0-44.69-8.48t-30.12-23.25Q100,603.51,100,584.27h49.09q0,15.63,8.43,23t27.4,7.42q12.14,0,19.18-5T211.14,595.62Z" style="fill: #000"/>
    <path d="M453.14,489H392.2V647.33H343.26V489H283.43v-36.2H453.14Z" style="fill: #000"/>
    <path d="M580.94,611H513.86l-11.71,36.34H449.86l74.46-194.52h46l75,194.52H592.79Zm-55.36-36.21h43.64l-21.89-67.47Z" style="fill: #000"/>
    <path d="M811.36,489H750.42V647.33H701.48V489H641.66v-36.2h169.7Z" style="fill: #000"/>
    <path d="M892.72,647.33h-48.8V452.81h48.8Z" style="fill: #000"/>
    <path d="M1099.58,581.46q-1,20.31-11.43,35.87t-29.36,24.12q-18.88,8.55-43.16,8.55-40,0-63-25t-23-70.54v-9.62q0-28.59,10.39-50a76.41,76.41,0,0,1,29.91-33.13Q989.42,450,1015.08,450q36.95,0,59.4,18.64T1100,520h-48.81q-.56-17.77-9.34-25.52t-26.77-7.75q-18.27,0-26.78,13.09t-8.92,41.82v13.76q0,31.13,8.16,44.49t28.09,13.36q16.88,0,25.8-7.62t9.48-24.18Z" style="fill: #000"/>
  </g>
  <g>
    <path d="M100,798.66V701.34h38.22q20.53,0,31.24,6.88t10.7,20a21.64,21.64,0,0,1-3.8,12.9A22,22,0,0,1,165.18,749q8.34,2,12.79,7.48a20.55,20.55,0,0,1,4.46,13.37q0,14.31-9.9,21.49t-29.34,7.32Zm25.65-56.75H139q8.4-.06,12-2.81c2.38-1.84,3.58-4.54,3.58-8.12q0-6.16-3.88-8.88t-12.49-2.71H125.65Zm0,15.38v23.32h16.81q6.93,0,10.67-2.9a9.8,9.8,0,0,0,3.72-8.19q0-12.16-13.22-12.23Z" style="fill: #000"/>
    <path d="M291.12,752q0,14.24-5.77,25.2A40.43,40.43,0,0,1,269,794.08,48.94,48.94,0,0,1,244.72,800a49.69,49.69,0,0,1-24.11-5.72,40.47,40.47,0,0,1-16.41-16.34,51.83,51.83,0,0,1-6.17-24.4v-5.48q0-14.29,5.73-25.23A40.42,40.42,0,0,1,220.2,706a52.65,52.65,0,0,1,48.49-.07,41.16,41.16,0,0,1,16.48,16.75,52.06,52.06,0,0,1,5.95,24.9ZM265,747.93q0-14.5-5.3-22t-15.17-7.52q-19.29,0-20.38,26.47l-.08,7.16q0,14.29,5.19,22t15.42,7.68q9.72,0,15-7.55T265,752.41Z" style="fill: #000"/>
    <path d="M336.17,798.66H310.59V701.34h25.58Z" style="fill: #000"/>
    <path d="M384.14,780.61h44.65v18h-70.3V701.34h25.65Z" style="fill: #000"/>
    <path d="M510.08,757.35H469.74v23.26h47.65v18h-73.3V701.34h73.44v18.11H469.74V740h40.34Z" style="fill: #000"/>
    <path d="M571.86,764.24H558v34.42H532.33V701.34H574.2q18.93,0,29.59,7.68t10.67,21.7q0,10.14-4.49,16.82T595.9,758.36l22.22,39.3v1H590.64Zm-13.88-18H574.2q7.31,0,11-3.52t3.69-9.82q0-6.29-3.73-9.88t-11-3.58H558Z" style="fill: #000"/>
    <path d="M660.09,765.64v33H634.44V701.34H676.9a53.42,53.42,0,0,1,21.6,4.11A33.17,33.17,0,0,1,713,717.15a29.92,29.92,0,0,1,5.15,17.21q0,14.24-11.15,22.76t-30.58,8.52Zm0-18.11H676.9q7.46,0,11.36-3.41c2.61-2.28,3.91-5.48,3.91-9.63,0-4.54-1.34-8.18-4-10.89s-6.34-4.1-11-4.15h-17.1Z" style="fill: #000"/>
    <path d="M762,780.61h44.65v18h-70.3V701.34H762Z" style="fill: #000"/>
    <path d="M890.5,780.48H855.35l-6.14,18.18h-27.4l39-97.32H885l39.31,97.32H896.71Zm-29-18.11h22.87l-11.47-33.76Z" style="fill: #000"/>
    <path d="M1011.26,719.45H979.32v79.21H953.67V719.45H922.32V701.34h88.94Z" style="fill: #000"/>
    <path d="M1092.55,757.35h-40.34v23.26h47.64v18h-73.29V701.34H1100v18.11h-47.79V740h40.34Z" style="fill: #000"/>
  </g>
  <rect x="100" y="862.5" width="1000" height="25" style="fill: #000"/>
  <g>
    <path d="M429.36,1039.84H372.61V1098H337.42V952h97.66v27.17H372.61v33.59h56.75Z" style="fill: #000"/>
    <path d="M537.34,1059.19q0-7.73-5.47-12t-19.2-8.92a184.18,184.18,0,0,1-22.46-8.93q-28.36-13.93-28.37-38.3a34.32,34.32,0,0,1,7.07-21.41q7.06-9.27,20-14.44A77.87,77.87,0,0,1,518,950a68.13,68.13,0,0,1,28.22,5.61,44.68,44.68,0,0,1,19.4,16,41.7,41.7,0,0,1,6.92,23.71H537.44q0-8.93-5.47-13.84t-14.78-4.91q-9.44,0-14.89,4.16a12.76,12.76,0,0,0-5.47,10.58q0,5.63,6,10.18t21.15,9.42a130.07,130.07,0,0,1,24.87,10.48q23.65,13.64,23.66,37.6,0,19.15-14.44,30.08T518.49,1100a78.51,78.51,0,0,1-32.14-6.37q-14.39-6.36-21.65-17.44a45.46,45.46,0,0,1-7.27-25.52h35.29q0,11.73,6.07,17.29t19.7,5.57q8.71,0,13.79-3.76A12.42,12.42,0,0,0,537.34,1059.19Z" style="fill: #000"/>
    <path d="M602.9,1098V952h52.44q28.17,0,42.87,10.32t14.68,30q0,11.34-5.21,19.35a30.4,30.4,0,0,1-15.34,11.84q11.43,3,17.55,11.23t6.11,20q0,21.45-13.58,32.24t-40.26,11Zm35.2-85.12h18.34q11.53-.11,16.45-4.23t4.91-12.16q0-9.26-5.31-13.33t-17.15-4.07H638.1Zm0,23.06v35h23.06q9.52,0,14.64-4.36t5.11-12.28q0-18.26-18.15-18.35Z" style="fill: #000"/>
    <path d="M782.87,1048.46V1098H747.68V952h58.25q16.74,0,29.63,6.16a46.43,46.43,0,0,1,20,17.55,47.86,47.86,0,0,1,7.07,25.82q0,21.36-15.29,34.14t-42,12.78Zm0-27.17h23.06q10.23,0,15.59-5.11t5.37-14.44q0-10.23-5.52-16.35t-15-6.21H782.87Z" style="fill: #000"/>
  </g>
</svg>
