<?xml version="1.0" encoding="utf-8"?>
<!-- Generator: Adobe Illustrator 22.1.0, SVG Export Plug-In . SVG Version: 6.00 Build 0)  -->
<svg version="1.1" id="Layer_1" xmlns="http://www.w3.org/2000/svg" xmlns:xlink="http://www.w3.org/1999/xlink" x="0px" y="0px"
	 viewBox="0 0 1200 1200" style="enable-background:new 0 0 1200 1200;" xml:space="preserve">
<style type="text/css">
	.st0{fill:#449945;}
	.st1{fill:#47A547;}
	.st2{fill:#47A046;}
	.st3{fill:#419444;}
	.st4{fill:#51AA47;}
	.st5{fill:#4BA747;}
	.st6{fill:#58AD46;}
	.st7{fill:#5FB24D;}
	.st8{fill:#A9AA89;}
	.st9{fill:#B6B599;}
	.st10{fill:#C2C1A7;}
	.st11{fill:#CECDB7;}
	.st12{fill:#DBDBC7;}
	.st13{fill:#EBE9DB;}
</style>
<title>mongodb</title>
<path class="st0" d="M836.5,391.6c15.8,45.7,27.2,92.3,30.9,140.6c4.6,60,2.5,119.5-10.1,178.5c-0.4,1.6-1,3.2-1.6,4.7
	c-4,0-8-0.5-11.9,0.1c-32.8,5.2-65.5,10.5-98.2,15.8c-33.8,5.5-67.7,10.8-101.5,16.6c-12,2.1-26.8-0.4-31.6,16.1
	c-0.1,0.5-1.5,0.5-2.3,0.8l1.6-98.8c-0.6-79.5-1.1-159.1-1.7-238.6l15.8-2.7c25.8-4.2,51.6-8.5,77.3-12.6
	c30.8-4.9,61.6-9.7,92.4-14.4C809.3,395.5,822.9,393.6,836.5,391.6z"/>
<path class="st1" d="M577.7,1053.1c-16.6-14.3-33.8-28-49.8-43C442.1,929.2,379.4,834,348.5,719.2c-8.5-31.6-14.2-63.7-16-96.3
	c-1.3-22.9-3.1-45.9-1.5-68.6c4.3-60.5,13-120.3,30.8-178.5l1-1.4c1.7,2.3,4.2,4.3,5.1,6.9c17.3,51,34.5,102,51.6,153
	c53.7,160.4,107.4,320.7,161.1,481.1c1,3.1,3.8,5.7,5.7,8.5L577.7,1053.1z"/>
<path class="st2" d="M836.5,391.6c-13.6,2-27.2,4-40.8,6.1c-30.8,4.8-61.6,9.6-92.4,14.4c-25.8,4.1-51.6,8.4-77.3,12.6l-15.8,2.7
	l-0.2-10.3c-0.5-8.5-1.4-16.9-1.5-25.4c-0.7-53.9-1.1-107.8-1.8-161.7c-0.4-33.7-1-67.5-1.7-101.2c-0.4-21-0.9-41.9-1.8-62.8
	c-0.5-11.2-2.3-22.4-3.1-33.7c-0.4-6.5,0.2-13,0.3-19.5c8,15.6,15.9,31.3,24.2,46.7c13.1,24.4,33.9,42.4,52.6,62.1
	C751.2,199.3,803.7,289.6,836.5,391.6z"/>
<path class="st3" d="M610.2,764.8c0.8-0.3,2.2-0.3,2.3-0.8c4.8-16.5,19.6-14.1,31.6-16.1c33.8-5.8,67.6-11.1,101.5-16.6
	c32.7-5.3,65.4-10.6,98.2-15.8c3.9-0.6,7.9-0.1,11.9-0.1c-6.1,21.8-10.9,44.2-18.7,65.4c-8.8,24.1-19.5,47.6-30.8,70.7
	c-17,34.4-37.9,66.6-62.5,96c-18.9,22.7-39.9,43.7-61,64.4c-11.7,11.5-25.4,20.8-38.2,31.1l-3.3-2.3l-11.9-10.2l-12.4-27.1
	c-8.4-31.6-13-64.1-13.7-96.8l0.2-5.5l1.7-23.8c0.6-8.1,1.3-16.3,1.7-24.5C607.9,823.5,609,794.2,610.2,764.8L610.2,764.8z"/>
<path class="st4" d="M610.2,764.8c-1.2,29.3-2.3,58.7-3.5,88c-0.3,8.2-1.1,16.3-1.7,24.5l-7.5,2.8c-16.7-49.2-33.4-97.9-49.8-146.7
	c-27.1-80.7-53.8-161.6-80.8-242.4c-21.8-65.2-43.8-130.4-65.9-195.5c-1-3-4-5.4-6.1-8.1l48.2-88.6c1.6,2.9,3.8,5.6,4.9,8.6
	c22.3,65.9,44.5,131.9,66.6,197.9c28.7,85.9,57.3,171.8,85.9,257.7c1.1,3.4,3,6.6,4.8,10.4l6.6-7.7
	C611.3,698.9,610.7,731.9,610.2,764.8z"/>
<path class="st5" d="M394.9,287.4c2.1,2.7,5,5.1,6.1,8.1c22.1,65.1,44.1,130.3,65.9,195.4c27,80.8,53.7,161.7,80.8,242.4
	c16.3,48.8,33.1,97.5,49.8,146.7l7.5-2.8l-1.7,23.9l-1.5,5.5c-2.6,26.1-4.8,52.3-8,78.4c-1.6,13.1-5,25.9-7.6,38.8
	c-2-2.8-4.7-5.4-5.7-8.5C526.7,855,473,694.7,419.4,534.3c-17.1-51-34.3-102-51.6-153c-0.9-2.6-3.4-4.6-5.1-6.9
	C373.5,345.4,384.2,316.4,394.9,287.4z"/>
<path class="st6" d="M611.8,665.9l-6.6,7.7c-1.8-3.8-3.7-7-4.8-10.5c-28.7-85.9-57.3-171.8-85.9-257.7c-22.1-66-44.3-132-66.6-197.9
	c-1-3.1-3.2-5.8-4.9-8.6l59.6-78.4c1.9,2.5,4.6,4.7,5.5,7.6c16.6,48.4,33,96.9,49.2,145.4c15.2,45.3,30.2,90.7,45.6,135.9
	c1,3,4.6,5.2,7,7.7l0.1,10.3C610.7,506.9,611.3,586.4,611.8,665.9z"/>
<path class="st7" d="M610,417.1c-2.4-2.6-6-4.7-7-7.7c-15.4-45.2-30.4-90.6-45.6-135.9c-16.3-48.5-32.7-97-49.2-145.4
	c-1-2.8-3.6-5-5.5-7.6c19.3-18.9,38.1-38.6,58.3-56.7c17.9-16.1,32.3-33.3,33-58.7c0-1.1,0.5-2.1,1.3-5.1l5.1,12.9
	c-0.1,6.5-0.7,13-0.3,19.5c0.7,11.2,2.5,22.4,3.1,33.7c0.9,20.9,1.4,41.9,1.8,62.8c0.7,33.7,1.2,67.4,1.7,101.2
	c0.7,53.9,1.1,107.8,1.8,161.7C608.6,400.2,609.5,408.6,610,417.1z"/>
<path class="st8" d="M586.2,1023.9c2.6-12.9,6-25.8,7.6-38.8c3.2-26.1,5.4-52.3,8-78.4l0.7-0.1l0.7,0.1c0.7,32.7,5.3,65.2,13.7,96.8
	c-1.7,2.3-4.2,4.3-5.1,6.9c-7.2,20.2-13.9,40.5-21.1,60.7c-1,2.8-3.7,4.9-5.6,7.3l-7.3-25.2L586.2,1023.9z"/>
<path class="st9" d="M585,1078.3c1.9-2.4,4.7-4.6,5.6-7.3c7.2-20.2,13.9-40.5,21.1-60.7c0.9-2.6,3.3-4.6,5.1-6.9l12.3,27.1
	c-2.4,3.5-5.8,6.6-7.2,10.4l-23.7,69.4c-1,2.8-4.3,4.8-6.5,7.1L585,1078.3z"/>
<path class="st10" d="M591.8,1117.5c2.2-2.3,5.5-4.3,6.5-7.1L622,1041c1.3-3.8,4.7-7,7.2-10.4l12,10.2c-5.8,5.7-9,12.3-7,20.6
	l-3.6,11.9c-1.7,2-4.1,3.8-4.9,6.1c-8.3,23.7-16.1,47.4-24.5,71.1c-1,3-4,5.3-6,8c-1.1-13.6-2.2-27.3-3.3-40.9L591.8,1117.5z"/>
<path class="st11" d="M595.1,1158.4c2.1-2.6,5-5,6-8c8.3-23.6,16.2-47.4,24.5-71c0.8-2.3,3.2-4.1,4.9-6.1l-5,54.6
	c-1.3,1.5-3.3,2.9-3.9,4.7c-5.7,15.9-11,31.9-16.7,47.8c-1.2,3.3-3.4,6.2-5.2,9.2c-1.5-2-4.3-4-4.5-6.1
	C594.7,1175.1,595.1,1166.8,595.1,1158.4z"/>
<path class="st12" d="M599.7,1189.5c1.8-3.1,4-6,5.2-9.2c5.7-15.9,11-31.9,16.7-47.8c0.6-1.8,2.6-3.1,3.9-4.7l0.1,35.8l-12,30.7
	L599.7,1189.5z"/>
<path class="st13" d="M613.6,1194.4l12-30.7l2.4,36.4L613.6,1194.4z"/>
<path class="st11" d="M634.1,1061.4c-1.9-8.3,1.3-14.9,7-20.6l3.3,2.3L634.1,1061.4z"/>
<path class="st4" d="M603.1,906.7l-0.7-0.1l-0.7,0.1l1.5-5.5L603.1,906.7z"/>
</svg>
