<svg id="Layer_1" data-name="Layer 1" xmlns="http://www.w3.org/2000/svg" viewBox="0 0 539.29 1200">
  <title>mongodb</title>
  <path d="M836.49,391.56c15.79,45.67,27.16,92.31,30.9,140.64,4.64,60,2.52,119.5-10.13,178.48a40.54,40.54,0,0,1-1.61,4.73c-4,0-8-.49-11.88.11C811,720.67,778.29,726,745.57,731.3c-33.82,5.48-67.69,10.75-101.46,16.6-12,2.07-26.77-.4-31.6,16.14-.14.46-1.51.54-2.31.79L611.83,666q-.84-119.3-1.66-238.59l15.76-2.71c25.78-4.22,51.55-8.5,77.35-12.6q46.17-7.33,92.4-14.41C809.26,395.52,822.87,393.58,836.49,391.56Z" transform="translate(-330.36 0)" style="fill: #449945"/>
  <path d="M577.66,1053.09c-16.63-14.3-33.84-28-49.77-43C442.13,929.21,379.4,834,348.51,719.22c-8.51-31.59-14.19-63.69-16-96.33C331.22,600,329.37,577,331,554.27c4.3-60.45,13-120.31,30.76-178.53l1-1.36c1.73,2.29,4.2,4.32,5.08,6.9q26,76.46,51.57,153,80.55,240.54,161.11,481.08c1,3.13,3.78,5.69,5.74,8.52Z" transform="translate(-330.36 0)" style="fill: #47a547"/>
  <path d="M836.49,391.56c-13.62,2-27.24,4-40.82,6.06q-46.2,7.15-92.4,14.41c-25.8,4.1-51.57,8.38-77.35,12.6l-15.76,2.71L610,417.06c-.52-8.46-1.41-16.9-1.51-25.35-.68-53.89-1.1-107.78-1.77-161.68q-.63-50.59-1.72-101.18c-.43-21-.88-41.92-1.82-62.85-.52-11.24-2.33-22.43-3.06-33.67-.42-6.47.15-13,.28-19.47,8,15.57,15.9,31.26,24.16,46.72C637.66,84,658.46,102,677.18,121.67,751.19,199.31,803.74,289.58,836.49,391.56Z" transform="translate(-330.36 0)" style="fill: #47a046"/>
  <path d="M610.19,764.82c.8-.25,2.18-.33,2.31-.79,4.83-16.54,19.64-14.07,31.6-16.14,33.77-5.84,67.64-11.12,101.46-16.6,32.72-5.3,65.45-10.63,98.2-15.78,3.87-.61,7.92-.1,11.88-.11-6.12,21.84-10.94,44.15-18.7,65.39-8.82,24.09-19.48,47.61-30.8,70.66a484,484,0,0,1-62.51,96c-18.87,22.7-39.92,43.69-61,64.42-11.66,11.46-25.4,20.79-38.19,31.09l-3.32-2.26-11.94-10.21-12.36-27.09a407.31,407.31,0,0,1-13.71-96.78l.22-5.52L605,877.28c.56-8.14,1.3-16.28,1.65-24.45,1.27-29.33,2.37-58.67,3.53-88Z" transform="translate(-330.36 0)" style="fill: #419444"/>
  <path d="M610.19,764.82c-1.16,29.34-2.26,58.68-3.51,88-.35,8.17-1.09,16.3-1.65,24.45l-7.53,2.84c-16.72-49.21-33.44-97.89-49.8-146.71C520.64,652.66,493.91,571.77,466.9,491Q434.18,393.17,401,295.54c-1-3.05-4-5.44-6.07-8.13l48.17-88.56c1.65,2.87,3.84,5.56,4.88,8.64q33.42,98.92,66.58,197.93,43,128.82,85.87,257.74c1.14,3.43,3,6.6,4.83,10.44l6.59-7.67Q611,715.39,610.19,764.82Z" transform="translate(-330.36 0)" style="fill: #51aa47"/>
  <path d="M394.92,287.42c2.07,2.69,5,5.08,6.07,8.13Q434.17,393.2,466.91,491c27,80.78,53.74,161.67,80.8,242.43,16.35,48.81,33.07,97.5,49.8,146.71L605,877.3l-1.69,23.87-1.52,5.5c-2.62,26.13-4.82,52.32-8,78.39-1.6,13.06-5,25.89-7.59,38.83-2-2.83-4.69-5.39-5.74-8.52Q499.81,774.88,419.38,534.29q-25.63-76.54-51.57-153c-.88-2.58-3.35-4.61-5.08-6.9Q378.82,330.89,394.92,287.42Z" transform="translate(-330.36 0)" style="fill: #4ba747"/>
  <path d="M611.82,665.94l-6.59,7.67c-1.8-3.84-3.69-7-4.83-10.45q-43-128.83-85.86-257.73-33.09-99-66.59-197.93c-1-3.08-3.22-5.78-4.88-8.64l59.57-78.36c1.88,2.51,4.56,4.74,5.53,7.56Q533,200.69,557.39,273.45c15.22,45.29,30.21,90.66,45.61,135.89,1,3,4.62,5.18,7,7.74l.12,10.28Q611,546.63,611.82,665.94Z" transform="translate(-330.36 0)" style="fill: #58ad46"/>
  <path d="M610,417.06c-2.4-2.56-6-4.71-7-7.74-15.4-45.23-30.39-90.6-45.61-135.89Q533,200.68,508.19,128c-1-2.82-3.65-5-5.53-7.56C522,101.51,540.8,81.86,561,63.77c17.92-16.08,32.32-33.31,33-58.71C594,4,594.51,3,595.35,0l5.11,12.85c-.13,6.5-.71,13-.28,19.47.73,11.24,2.54,22.43,3.06,33.67.94,20.93,1.39,41.89,1.82,62.85q1,50.58,1.72,101.18c.66,53.9,1.09,107.79,1.77,161.68C608.63,400.17,609.51,408.6,610,417.06Z" transform="translate(-330.36 0)" style="fill: #5fb24d"/>
  <path d="M586.21,1023.88c2.58-12.94,6-25.78,7.59-38.83,3.2-26.06,5.39-52.26,8-78.39l.65-.1.65.11a407.31,407.31,0,0,0,13.71,96.78c-1.73,2.29-4.18,4.32-5.09,6.9-7.16,20.17-13.9,40.49-21.09,60.66-1,2.76-3.72,4.9-5.64,7.32l-7.35-25.24Z" transform="translate(-330.36 0)" style="fill: #a9aa89"/>
  <path d="M585,1078.34c1.92-2.42,4.67-4.56,5.64-7.32,7.19-20.17,13.94-40.48,21.09-60.66.91-2.58,3.35-4.61,5.09-6.9l12.35,27.1c-2.44,3.46-5.81,6.58-7.16,10.44l-23.65,69.44c-1,2.79-4.3,4.76-6.53,7.11Z" transform="translate(-330.36 0)" style="fill: #b6b599"/>
  <path d="M591.84,1117.54c2.24-2.34,5.55-4.32,6.53-7.11L622,1041c1.34-3.85,4.72-7,7.16-10.44l12,10.2c-5.77,5.71-9,12.3-7,20.63l-3.63,11.89c-1.66,2-4.05,3.8-4.86,6.13-8.26,23.65-16.14,47.41-24.45,71.06-1,3-4,5.35-6,8q-1.61-20.46-3.26-40.9Z" transform="translate(-330.36 0)" style="fill: #c2c1a7"/>
  <path d="M595.11,1158.44c2.06-2.64,5-5,6-8,8.31-23.63,16.19-47.39,24.45-71,.81-2.32,3.19-4.1,4.86-6.13l-5,54.55c-1.34,1.54-3.28,2.89-3.92,4.69-5.65,15.88-11,31.88-16.66,47.75-1.17,3.28-3.42,6.17-5.17,9.23-1.55-2-4.34-4-4.46-6.13C594.74,1175.09,595.08,1166.76,595.11,1158.44Z" transform="translate(-330.36 0)" style="fill: #cecdb7"/>
  <path d="M599.69,1189.49c1.75-3.07,4-6,5.17-9.23,5.68-15.86,11-31.86,16.66-47.75.64-1.8,2.59-3.14,3.92-4.69l.12,35.81-12,30.73Z" transform="translate(-330.36 0)" style="fill: #dbdbc7"/>
  <path d="M613.57,1194.37l12-30.73L628,1200Z" transform="translate(-330.36 0)" style="fill: #ebe9db"/>
  <path d="M634.08,1061.39c-1.93-8.33,1.27-14.93,7-20.63l3.32,2.26Z" transform="translate(-330.36 0)" style="fill: #cecdb7"/>
  <path d="M603.11,906.68l-.65-.11-.65.1,1.52-5.5Z" transform="translate(-330.36 0)" style="fill: #51aa47"/>
</svg>
