<?xml version="1.0" encoding="utf-8"?>
<!-- Generator: Adobe Illustrator 22.1.0, SVG Export Plug-In . SVG Version: 6.00 Build 0)  -->
<svg version="1.1" id="Layer_1" xmlns="http://www.w3.org/2000/svg" xmlns:xlink="http://www.w3.org/1999/xlink" x="0px" y="0px"
	 viewBox="0 0 1200 1200" style="enable-background:new 0 0 1200 1200;" xml:space="preserve">
<style type="text/css">
	.st0{fill:url(#SVGID_1_);}
</style>
<title>netlify</title>
<radialGradient id="SVGID_1_" cx="3.3398" cy="0.3398" r="1.0001" gradientTransform="matrix(1200 0 0 1200 -3407.8101 -1007.875)" gradientUnits="userSpaceOnUse">
	<stop  offset="0" style="stop-color:#3BBEB3"/>
	<stop  offset="1" style="stop-color:#4E9ABF"/>
</radialGradient>
<path class="st0" d="M869.7,416.4l-0.4-0.2c-0.3-0.1-0.5-0.2-0.7-0.4c-0.7-0.8-1.1-1.9-0.9-2.9L891.9,265l113.6,113.5l-118.1,50.2
	c-0.3,0.1-0.7,0.2-1,0.2h-0.5c-0.2-0.1-0.4-0.3-0.6-0.5C880.8,423.5,875.6,419.4,869.7,416.4L869.7,416.4z M1034.4,407.4
	l121.4,121.3c25.2,25.2,37.8,37.8,42.5,52.4c0.7,2.1,1.3,4.3,1.7,6.5L909.8,464.9l-0.5-0.2c-1.2-0.5-2.5-1-2.5-2.2s1.4-1.8,2.5-2.2
	l0.4-0.2L1034.4,407.4z M1195.1,626.6c-6.3,11.8-18.5,24-39.2,44.7L1019,808l-177.1-36.8L841,771c-1.6-0.3-3.2-0.5-3.2-1.9
	c-1.4-14.8-8.8-28.3-20.5-37.3c-0.7-0.7-0.5-1.8-0.3-2.9c0-0.1,0-0.3,0.1-0.4l33.3-204.2l0.1-0.7c0.2-1.6,0.5-3.4,1.9-3.4
	c14.4-1.8,27.5-9.3,36.3-20.8c0.3-0.3,0.5-0.6,0.8-0.8c1-0.5,2.2,0,3.2,0.4L1195.1,626.6L1195.1,626.6z M987.5,839.4l-225.2,224.9
	l38.5-236.6l0.1-0.3c0-0.3,0.1-0.6,0.2-0.9c0.3-0.8,1.1-1.1,1.9-1.4l0.4-0.2c8.4-3.6,15.9-9.1,21.8-16.2c0.7-1,1.7-1.6,2.8-1.9
	c0.3,0,0.6,0,0.9,0L987.5,839.4L987.5,839.4L987.5,839.4z M714.7,1111.9l-25.4,25.3l-280.6-405l-0.3-0.4c-0.5-0.5-0.8-1.2-0.8-1.9
	c0.1-0.5,0.3-1,0.7-1.3l0.3-0.4c0.9-1.3,1.6-2.5,2.4-3.9l0.6-1.1l0.1-0.1c0.4-0.8,0.9-1.4,1.6-1.9c0.7-0.2,1.5-0.2,2.3,0l310.8,64
	c0.9,0.1,1.7,0.5,2.4,1c0.3,0.4,0.6,0.8,0.6,1.3c4.4,16.6,16.3,30.2,32.2,36.8c0.9,0.4,0.5,1.4,0.1,2.4c-0.2,0.5-0.4,0.9-0.5,1.4
	C757.3,852.1,723.7,1056.7,714.7,1111.9L714.7,1111.9z M661.7,1164.8c-18.7,18.5-29.7,28.3-42.2,32.2c-12.3,3.9-25.5,3.9-37.8,0
	c-14.6-4.6-27.2-17.2-52.5-42.4L247.5,873.2l73.6-114c0.3-0.6,0.7-1.1,1.3-1.5c0.9-0.4,2-0.4,2.9,0c16.9,5.1,35,4.2,51.3-2.6
	c0.8-0.3,1.7-0.5,2.4,0.1c0.3,0.3,0.6,0.6,0.9,1L661.7,1164.8L661.7,1164.8L661.7,1164.8z M220.3,846.1l-64.6-64.6l127.6-54.4
	c0.3-0.1,0.7-0.2,1-0.2c1.1,0,1.7,1.1,2.3,2c1.3,2,2.6,3.9,4.1,5.8l0.4,0.5c0.4,0.5,0.1,1.1-0.2,1.6L220.3,846.1L220.3,846.1z
	 M127.1,752.9l-81.8-81.7c-13.9-13.9-24-24-31-32.6l248.6,51.5l0.9,0.2c1.5,0.3,3.2,0.5,3.2,2s-1.9,2.3-3.4,2.9l-0.7,0.3
	C263,695.5,127.1,752.9,127.1,752.9z M0,596.6c0.3-5.3,1.2-10.5,2.8-15.5C7.5,566.5,20,554,45.3,528.7L150,424.2
	c48.1,69.9,96.4,139.6,144.9,209.3c0.8,1.1,1.8,2.4,0.8,3.3c-4.6,5-9.1,10.5-12.4,16.5c-0.4,0.8-0.9,1.4-1.6,1.9
	c-0.4,0.2-0.9,0.2-1.3,0.1h-0.1L0,596.6L0,596.6L0,596.6z M178,396.2l140.7-140.5c13.2,5.8,61.3,26.1,104.4,44.3
	c32.6,13.8,62.3,26.3,71.6,30.4c0.9,0.2,1.7,0.8,2.2,1.7c0.2,0.6,0.2,1.3,0,1.9c-4.5,20.6,1.6,42.1,16.4,57.2c0.9,0.9,0,2.3-0.8,3.4
	l-0.4,0.7l-142.9,221c-0.3,0.6-0.8,1.2-1.4,1.6c-0.9,0.3-1.8,0.3-2.7,0c-5.6-1.5-11.3-2.2-17-2.3c-5.5,0.2-11,0.9-16.4,2l0,0
	c-0.6,0.2-1.2,0.1-1.7-0.2c-0.6-0.5-1-1-1.4-1.6L178,396.2z M347.1,227.3l182.1-182c25.2-25.2,37.8-37.8,52.5-42.4
	C594-1,607.2-1,619.5,2.9c14.6,4.6,27.2,17.2,52.5,42.4l39.5,39.5L581.8,285.2c-0.3,0.6-0.8,1.1-1.3,1.5c-0.9,0.4-1.9,0.4-2.8,0
	c-20.7-6.3-43.2-1.9-60.2,11.6c-0.8,0.9-2.1,0.4-3.2-0.1C497.5,290.8,365.9,235.3,347.1,227.3L347.1,227.3z M738.9,112.3
	l119.6,119.4L829.7,410v0.5c0,0.4-0.1,0.8-0.3,1.2c-0.3,0.6-0.9,0.8-1.6,0.9c-6.2,1.9-12,4.7-17.2,8.5c-0.2,0.2-0.4,0.3-0.6,0.5
	c-0.3,0.4-0.7,0.7-1.3,0.8c-0.5,0-0.9-0.1-1.3-0.2l-182.3-77.4l-0.3-0.2c-1.2-0.5-2.5-1-2.5-2.2c-1.1-10.1-4.4-19.9-9.7-28.6
	c-0.9-1.4-1.8-2.9-1.1-4.4L738.9,112.3L738.9,112.3z M615.7,381.6l170.9,72.3c1,0.3,1.8,0.9,2.4,1.8c0.2,0.6,0.2,1.2,0,1.8
	c-0.6,2.7-0.9,5.5-0.9,8.2v4.8c0,1.2-1.2,1.7-2.3,2.1l-0.3,0.1c-27.1,11.5-380,161.9-380.6,161.9c-0.6,0.1-1.2-0.1-1.6-0.5
	c-0.9-0.9,0-2.3,0.9-3.5l0.4-0.6l140.4-217.2l0.3-0.4c0.8-1.3,1.8-2.8,3.3-2.8l1.4,0.2c2.9,0.5,5.9,0.8,8.9,0.8
	c21.3,0.1,41.1-10.4,53-28.1c0.3-0.5,0.6-0.9,1.1-1.3C613.5,380.8,614.7,381.1,615.7,381.6z M420,669l384.7-163.9
	c0.4,0,0.8,0.2,1.1,0.5c1.8,1.7,3.6,3.3,5.6,4.8l0.8,0.5c0.8,0.4,1.6,0.9,1.6,1.8c0,0.3,0,0.5-0.1,0.8l-33,202.2l-0.1,0.8
	c-0.2,1.6-0.4,3.3-1.9,3.3c-17.8,1.2-33.9,11.1-43,26.5l-0.2,0.3c-0.4,0.7-0.9,1.3-1.6,1.8c-0.7,0.2-1.5,0.2-2.2,0l-306.8-63.2
	C424.8,685.2,420.4,669,420,669L420,669z"/>
</svg>
