<svg id="Layer_1" data-name="Layer 1" xmlns="http://www.w3.org/2000/svg" xmlns:xlink="http://www.w3.org/1999/xlink" viewBox="0 0 1200 1200">
  <defs>
    <radialGradient id="radial-gradient" cx="3.34" cy="1199.66" r="1" gradientTransform="matrix(1200, 0, 0, -1200, -3407.81, 1438992.12)" gradientUnits="userSpaceOnUse">
      <stop offset="0" stop-color="#3bbeb3"/>
      <stop offset="1" stop-color="#4e9abf"/>
    </radialGradient>
  </defs>
  <title>netlify</title>
  <path d="M869.68,416.43l-.44-.18a1.85,1.85,0,0,1-.72-.41,3.45,3.45,0,0,1-.88-2.91L891.86,265,1005.44,378.5,887.32,428.7a2.61,2.61,0,0,1-1,.19h-.47a2.73,2.73,0,0,1-.63-.54,54,54,0,0,0-15.51-11.92Zm164.74-9,121.43,121.3c25.22,25.23,37.85,37.81,42.46,52.39a59.21,59.21,0,0,1,1.69,6.54L909.78,464.88l-.47-.19c-1.16-.47-2.5-1-2.5-2.19s1.37-1.75,2.53-2.22l.38-.16Zm160.63,219.17c-6.27,11.76-18.49,24-39.16,44.66L1019,808,841.89,771.15,841,771c-1.57-.26-3.23-.54-3.23-1.94a53.36,53.36,0,0,0-20.52-37.34c-.72-.72-.53-1.85-.31-2.88a1,1,0,0,1,.06-.44l33.31-204.24.12-.69c.19-1.56.47-3.37,1.88-3.37a54.19,54.19,0,0,0,36.34-20.82c.29-.31.47-.65.85-.84,1-.47,2.19,0,3.23.43L1195,626.59ZM987.49,839.43l-225.15,224.9,38.53-236.6.07-.32a4,4,0,0,1,.19-.9c.31-.75,1.12-1.06,1.91-1.38l.37-.16a58,58,0,0,0,21.78-16.17,4.74,4.74,0,0,1,2.82-1.88,2.78,2.78,0,0,1,.91,0l158.53,32.55,0,0Zm-272.81,272.5-25.37,25.35-280.57-405-.31-.44a2.68,2.68,0,0,1-.81-1.87,2.18,2.18,0,0,1,.68-1.31l.31-.41c.85-1.26,1.57-2.51,2.36-3.86l.62-1.09.09-.09a4.61,4.61,0,0,1,1.6-1.88,3.8,3.8,0,0,1,2.29,0l310.83,64a5.15,5.15,0,0,1,2.38,1,2.27,2.27,0,0,1,.6,1.35,55,55,0,0,0,32.21,36.77c.87.44.5,1.41.09,2.44a7.78,7.78,0,0,0-.47,1.41C757.3,852.07,723.71,1056.69,714.68,1111.93Zm-53,52.92c-18.7,18.5-29.73,28.29-42.2,32.24a62.77,62.77,0,0,1-37.78,0c-14.6-4.64-27.23-17.21-52.45-42.44L247.48,873.2l73.59-114a4.59,4.59,0,0,1,1.26-1.47,3.24,3.24,0,0,1,2.85,0,76.34,76.34,0,0,0,51.32-2.6c.84-.31,1.69-.53,2.35.06a6,6,0,0,1,.88,1l281.94,408.7v0ZM220.32,846.07,155.68,781.5l127.64-54.39a2.66,2.66,0,0,1,1-.22c1.06,0,1.69,1.06,2.25,2,1.29,2,2.65,3.9,4.08,5.77l.4.49c.38.54.13,1.07-.24,1.57l-70.5,109.32Zm-93.24-93.14L45.3,671.25c-13.91-13.9-24-24-31-32.64l248.64,51.51.93.16c1.54.25,3.24.53,3.24,2s-1.85,2.28-3.42,2.87l-.72.32L127.08,752.93ZM0,596.6a62.38,62.38,0,0,1,2.82-15.49C7.46,566.53,20.05,554,45.3,528.72L150,424.19Q222.22,529,294.89,633.47c.84,1.13,1.78,2.38.81,3.32-4.57,5-9.15,10.54-12.37,16.53a5.08,5.08,0,0,1-1.57,1.93,1.76,1.76,0,0,1-1.32.07h-.06L0,596.57v0ZM178,396.21,318.67,255.66c13.21,5.79,61.34,26.1,104.39,44.25,32.58,13.78,62.28,26.3,71.62,30.36a3.49,3.49,0,0,1,2.2,1.69,3.34,3.34,0,0,1,0,1.88,62.62,62.62,0,0,0,16.38,57.21c.94.94,0,2.28-.81,3.44l-.44.66L369.14,616.2a4.31,4.31,0,0,1-1.35,1.56,3.61,3.61,0,0,1-2.69,0,71.36,71.36,0,0,0-17-2.31,94.11,94.11,0,0,0-16.35,2h0a2.09,2.09,0,0,1-1.69-.16,6.68,6.68,0,0,1-1.41-1.59ZM347.09,227.27l182.15-182c25.22-25.19,37.85-37.8,52.45-42.41a62.77,62.77,0,0,1,37.78,0c14.6,4.61,27.23,17.22,52.45,42.41L711.4,84.76,581.85,285.17a4.79,4.79,0,0,1-1.29,1.5,3.24,3.24,0,0,1-2.82,0,65.77,65.77,0,0,0-60.16,11.59c-.84.87-2.1.37-3.16-.1-16.92-7.35-148.51-62.9-167.34-70.88Zm391.81-115L858.53,231.72,829.7,410.05v.47a4.08,4.08,0,0,1-.25,1.19c-.31.62-.94.75-1.57.94a57.22,57.22,0,0,0-17.16,8.54,4.65,4.65,0,0,0-.63.53,2,2,0,0,1-1.25.78,3.45,3.45,0,0,1-1.35-.22L625.2,344.92l-.34-.16c-1.16-.47-2.54-1-2.54-2.22a68.78,68.78,0,0,0-9.71-28.64c-.88-1.43-1.85-2.93-1.1-4.41L738.9,112.23ZM615.71,381.56l170.88,72.3a4.11,4.11,0,0,1,2.38,1.81,3.36,3.36,0,0,1,0,1.78,42.63,42.63,0,0,0-.94,8.24v4.79c0,1.19-1.22,1.68-2.35,2.15l-.34.13c-27.07,11.55-380,161.89-380.58,161.89a2.05,2.05,0,0,1-1.63-.52c-.93-.94,0-2.25.85-3.45l.44-.62,140.42-217.2.25-.37c.82-1.32,1.76-2.79,3.26-2.79l1.41.22a67,67,0,0,0,8.87.84,63.48,63.48,0,0,0,53-28.07,5.07,5.07,0,0,1,1.06-1.25C613.49,380.81,614.74,381.13,615.71,381.56ZM420,669l384.74-163.9a1.68,1.68,0,0,1,1.1.54,51.55,51.55,0,0,0,5.61,4.81l.84.53c.79.44,1.57.94,1.63,1.76a3.29,3.29,0,0,1-.06.78l-33,202.24-.13.81c-.21,1.56-.43,3.35-1.91,3.35a54.18,54.18,0,0,0-43,26.51l-.16.25a4.4,4.4,0,0,1-1.57,1.78,3.42,3.42,0,0,1-2.19,0L425.13,685.29c-.32-.06-4.76-16.24-5.11-16.27Z" transform="translate(0 0)" style="fill: url(#radial-gradient)"/>
</svg>
