<?xml version="1.0" encoding="utf-8"?>
<!-- Generator: Adobe Illustrator 22.1.0, SVG Export Plug-In . SVG Version: 6.00 Build 0)  -->
<svg version="1.1" id="Layer_1" xmlns="http://www.w3.org/2000/svg" xmlns:xlink="http://www.w3.org/1999/xlink" x="0px" y="0px"
	 viewBox="0 0 1200 1200" style="enable-background:new 0 0 1200 1200;" xml:space="preserve">
<style type="text/css">
	.st0{fill:#87C540;}
</style>
<title>node</title>
<path class="st0" d="M1089,265.9L651.3,11.8c-27.6-15.7-63.5-15.7-91.3,0L117.7,265.9c-28.5,16.4-48.6,47.2-48.6,80.1v507.5
	c0,32.9,20.7,63.8,49.2,80.2l116.8,66.4c55.9,27.5,75.6,27.5,101,27.5c82.7,0,129.9-50,129.9-137.2V389.4c0-7.1-3.7-17.6-10.6-17.6
	h-55.8c-7.1,0-22.9,10.5-22.9,17.6v501.1c0,38.7-35,77.1-100.3,44.5l-120.8-69.6c-4.3-2.3-7.1-6.8-7.2-11.7V346
	c0-4.8,5.5-9.6,9.7-12L599.1,80.3c4.5-2.3,9.8-2.3,14.3,0l435.5,253.6c4.2,2.5,2.7,7.2,2.7,12.1v507.5c0,4.8,1.8,9.6-2.3,11.9
	l-437.5,253.8c-3.9,2.3-8.6,2.3-12.5,0l-112.2-67c-3.4-2-7.4-2.7-10.6-0.8c-31.2,17.7-37,20-66.3,30.2c-7.2,2.5-17.8,6.9,4.1,19.1
	l146.9,86.9c28.6,16.5,63.8,16.5,92.4,0L1089,933.8c28.5-16.6,42-47.3,42-80.2V346C1130.9,313.1,1117.4,282.4,1089,265.9z
	 M743,773.1c-116.4,0-142-32.1-150.5-90c-1-6.2-6.3-13.7-12.6-13.7H523c-7,0-12.7,8.5-12.7,15.5c0,74.1,40.3,163.9,232.7,163.9
	c139.3,0,219.2-54.1,219.2-149.9c0-95-64.2-119.9-199.3-137.8c-136.6-18-150.5-27.1-150.5-59.1c0-26.4,11.8-61.6,112.9-61.6
	c90.4,0,123.7,19.4,137.4,80.3c1.3,5.8,6.4,9.9,12.3,9.8h57.1c3.5,0,6.9-1.4,9.3-3.9c2.4-2.6,3.6-6.2,3.3-9.7
	c-8.8-104.9-78.5-153.8-219.4-153.8c-125.3,0-200.1,52.9-200.1,141.7c0,96.3,74.4,122.8,194.7,134.7c144,14.1,155.1,35.1,155.1,63.5
	C875.1,752.2,835.6,773.1,743,773.1z"/>
</svg>
