<svg id="Layer_1" data-name="Layer 1" xmlns="http://www.w3.org/2000/svg" viewBox="0 0 1061.87 1200">
  <title>node</title>
  <path d="M1089,265.89,651.35,11.79c-27.6-15.72-63.54-15.72-91.35,0L117.7,265.89C89.22,282.28,69.07,313.07,69.07,346V853.54c0,32.94,20.68,63.75,49.16,80.22l116.85,66.37c55.86,27.51,75.6,27.51,101,27.51,82.7,0,129.94-50,129.94-137.23V389.35c0-7.08-3.69-17.61-10.63-17.61H399.59c-7.06,0-22.88,10.53-22.88,17.6V890.4c0,38.67-35,77.14-100.33,44.46l-120.75-69.6a13.7,13.7,0,0,1-7.17-11.72V346c0-4.78,5.51-9.59,9.74-12L599.07,80.31a15.4,15.4,0,0,1,14.28,0l435.48,253.6c4.17,2.51,2.7,7.17,2.7,12.1V853.54c0,4.85,1.82,9.56-2.3,11.89L611.72,1119.25a12.43,12.43,0,0,1-12.51,0l-112.21-67c-3.39-2-7.41-2.67-10.65-.85-31.22,17.69-37,20-66.27,30.2-7.2,2.51-17.83,6.86,4.07,19.14L561,1187.64a92.58,92.58,0,0,0,92.43,0L1089,933.76c28.48-16.59,42-47.28,42-80.22V346C1130.93,313.07,1117.44,282.36,1089,265.89ZM743,773.12c-116.36,0-142-32.1-150.54-90-1-6.23-6.28-13.69-12.63-13.69H523c-7,0-12.69,8.54-12.69,15.54,0,74.1,40.28,163.87,232.74,163.87,139.33,0,219.21-54.14,219.21-149.94,0-95-64.18-119.92-199.3-137.81C626.35,543.07,612.47,534,612.47,502c0-26.38,11.75-61.56,112.88-61.56,90.36,0,123.66,19.39,137.37,80.29a12.53,12.53,0,0,0,12.3,9.84h57.11a13.08,13.08,0,0,0,9.33-3.93,12.85,12.85,0,0,0,3.32-9.72C935.94,412,866.26,363.13,725.34,363.13c-125.35,0-200.13,52.93-200.13,141.66,0,96.25,74.4,122.84,194.73,134.74C863.89,653.64,875.08,674.68,875.08,703,875.08,752.17,835.61,773.12,743,773.12Z" transform="translate(-69.07 0)" style="fill: #87c540"/>
</svg>
