<?xml version="1.0" encoding="utf-8"?>
<!-- Generator: Adobe Illustrator 22.1.0, SVG Export Plug-In . SVG Version: 6.00 Build 0)  -->
<svg version="1.1" id="Layer_1" xmlns="http://www.w3.org/2000/svg" xmlns:xlink="http://www.w3.org/1999/xlink" x="0px" y="0px"
	 viewBox="0 0 1200 1200" style="enable-background:new 0 0 1200 1200;" xml:space="preserve">
<style type="text/css">
	.st0{fill:#70CFF0;}
</style>
<title>react</title>
<g>
	<circle class="st0" cx="600" cy="600" r="109.3"/>
	<path class="st0" d="M1015,419.8c-21.1-7.7-43.1-15.3-66.1-22c5.8-23,10.5-46,14.4-68c20.2-126.5-1.9-215.7-63.2-250.2
		c-18.2-10.6-38.3-15.3-61.3-15.3c-67.1,0-152.4,49.8-238.7,133.2C513.7,114.1,428.4,64.2,361.3,64.2c-23,0-43.1,4.8-61.3,15.3
		c-61.3,35.5-83.4,124.6-63.3,250.2c3.8,22,8.6,45,14.4,68c-23,6.7-45.1,13.4-66.1,22C65.2,465.8,0,529.1,0,600
		c0,70.9,66.1,134.2,185,180.2c21.1,7.7,43.1,15.3,66.1,22c-5.8,23-10.5,46-14.4,68c-20.1,126.5,1.9,215.6,63.3,250.2
		c18.2,10.5,38.3,15.3,61.3,15.3c68,0,153.4-49.8,238.7-133.2c86.3,83.4,171.6,133.2,238.7,133.2c23,0,43.1-4.8,61.3-15.3
		c61.3-35.5,83.4-124.6,63.3-250.2c-3.8-22-8.6-45-14.4-68c23-6.7,45-13.4,66.1-22c119.8-46,185-109.3,185-180.2
		C1200,529.1,1134.8,465.8,1015,419.8z M873.2,127.5c39.3,23,52.7,93.9,36.4,194.6c-2.9,20.1-7.7,41.2-13.4,63.3
		c-49.8-11.5-102.6-19.2-158.1-24c-30.8-43.4-64.1-85-99.7-124.6c70.9-70,142.8-117.9,201.3-117.9
		C852.1,118.8,863.6,121.7,873.2,127.5z M765.8,695.8c-17.3,30.7-37.4,61.3-58.5,92c-35.5,2.9-70.9,3.8-107.3,3.8
		c-37.4,0-72.8-1-107.4-3.8c-21.1-30.7-40.3-61.3-57.5-92c-18.2-31.6-35.5-64.2-50.8-95.8c15.3-31.6,32.6-64.2,50.8-95.8
		c17.3-30.7,37.4-61.3,58.5-92c35.5-2.9,70.9-3.8,107.3-3.8c37.4,0,72.8,1,107.3,3.8c21.1,30.7,40.2,61.3,57.5,92
		c18.2,31.6,35.5,64.2,50.8,95.8C800.3,631.6,784,663.3,765.8,695.8z M845.4,664.2c14.4,33.5,25.9,66.1,36.4,98.7
		c-32.6,7.7-67.1,13.4-103.5,18.2c11.5-18.2,24-37.4,34.5-57.5C824.3,703.5,834.8,683.4,845.4,664.2z M600,924
		c-23-24.9-45-51.8-66.1-79.5c22,1,44.1,1.9,66.1,1.9s44.1-1,66.1-1.9C645,872.2,623,899,600,924z M421.7,780.2
		c-36.4-4.8-70.9-10.5-103.5-18.2c10.5-31.6,22-65.2,36.4-98.7c10.5,19.2,21.1,39.3,32.6,58.5C398.7,742.8,410.2,761,421.7,780.2z
		 M354.6,535.8c-14.4-33.5-25.9-66.1-36.4-98.7c32.6-7.7,67.1-13.4,103.5-18.2c-11.5,18.2-24,37.4-34.5,57.5
		C375.7,496.5,365.2,516.6,354.6,535.8z M600,276c23,24.9,45,51.8,66.1,79.5c-22-1-44.1-1.9-66.1-1.9s-44.1,1-66.1,1.9
		C555,327.8,577,301,600,276z M812.8,477.3l-34.5-57.5c36.4,4.8,70.9,10.5,103.5,18.2c-10.5,31.6-22,65.2-36.4,98.7
		C834.8,516.6,824.3,496.5,812.8,477.3z M290.4,322c-16.3-100.6-2.9-171.6,36.4-194.6c9.6-5.8,21.1-8.6,33.5-8.6
		c57.5,0,129.4,47,201.3,117.9c-33.5,36.4-67.1,78.6-99.7,124.6c-53.2,4.8-106,12.8-158.1,24C298.1,363.3,294.3,342.2,290.4,322z
		 M53.7,600c0-45,54.6-93,150.5-128.4c20.1-7.9,40.5-14.6,61.4-20.1C281.8,502.3,301,552.3,323,601c-23,50.8-43.1,100.6-57.5,148.6
		C133.2,711.2,53.7,653.7,53.7,600z M326.8,1072.5c-39.3-23-52.7-93.9-36.4-194.6c2.9-20.1,7.7-41.2,13.4-63.3
		c49.8,11.5,102.6,19.2,158.1,24c30.8,43.4,64.1,85,99.7,124.6c-70.9,70-142.8,117.9-201.3,117.9
		C347.9,1081.1,336.4,1078.3,326.8,1072.5L326.8,1072.5z M909.6,878c16.3,100.6,2.9,171.6-36.4,194.6c-9.6,5.8-21.1,8.6-33.5,8.6
		c-57.5,0-129.4-47-201.3-117.9c33.5-36.4,67.1-78.6,99.7-124.6c53.2-4.8,106-12.8,158.1-24C901.9,836.7,905.8,857.8,909.6,878z
		 M995.9,728.5c-20.1,7.9-40.5,14.6-61.3,20.1C918.2,697.7,899,647.7,877,599c23-50.8,43.1-100.6,57.5-148.6
		c132.3,38.3,211.8,95.9,211.8,149.5C1146.3,645,1090.7,693,995.9,728.5L995.9,728.5z"/>
</g>
</svg>
