<?xml version="1.0" encoding="utf-8"?>
<!-- Generator: Adobe Illustrator 22.1.0, SVG Export Plug-In . SVG Version: 6.00 Build 0)  -->
<svg version="1.1" id="Layer_1" xmlns="http://www.w3.org/2000/svg" xmlns:xlink="http://www.w3.org/1999/xlink" x="0px" y="0px"
	 viewBox="0 0 1200 1200" style="enable-background:new 0 0 1200 1200;" xml:space="preserve">
<style type="text/css">
	.st0{fill:#CB6799;}
</style>
<title>sass</title>
<path class="st0" d="M0,525.5c0,6.7,2,11.2,3.1,15.5c7.2,28,22.8,52.1,41.2,74c26.2,31.3,58.4,56.4,91.3,80.1
	c28.6,20.5,57.7,40.6,86.4,61c4.9,3.5,9.6,7.5,14.9,11.8c-4.6,2.5-8.4,4.7-12.4,6.7c-37.8,19.2-74.3,40.7-107.8,66.8
	c-20.2,15.7-39.8,32.4-53.6,54.2C40.9,930.7,33,968.1,49.6,1008c4.8,11.7,12.2,21.7,22.6,29.2c3.4,2.4,7.2,4.8,11.1,5.7
	c10.1,2.4,20.4,3.9,30.7,5.8h29c32.1-2.9,61.2-13.8,87.6-32c41.2-28.4,69-66.6,80.9-115.5c8.7-35.6,9-71.2-1.2-106.6
	c-1-3.3-2.1-6.5-3.4-9.7s-2.7-6.3-4.4-10.2l65.7-37.8l1,0.8c-1.2,3.9-2.5,7.8-3.5,11.8c-7.8,28.5-13,57.5-11.1,87.1
	c2,31.5,10.8,61.1,29.3,87.4c14.9,21.3,50.5,22.1,66.4,0.7c5.6-7.6,11.1-15.5,15.2-24c10.7-22.1,20.6-44.6,30.9-67l1.8-4.1
	c-0.7,10.6-1.6,19.9-2,29.2c-0.6,14.5,0.2,29,5.2,42.8c4.3,11.8,11.5,20.7,25,22.2c9.3,1.1,16.7-3.2,23.5-8.6
	c10.6-8.3,19.3-18.7,25.7-30.6c18.2-33.4,36.8-66.5,53.3-100.7c17.8-37,33.4-75.1,49.9-112.7l2.7-6.7c3.9,15.3,6.7,30.3,11.7,44.6
	c6,16.5,12.9,32.7,20.9,48.3c3.7,7.4,3.3,12.2-1.9,18.4c-21.6,26-42.8,52.3-64,78.6c-4.8,5.7-9.2,11.7-13.3,18
	c-2.4,4-3.9,8.4-4.6,13c-1.4,8.8,4.5,17.1,13.2,18.8c8.5,1.8,17.2,2.4,25.9,1.8c29.6-2.2,56.5-12.6,80.2-30.2
	c30.8-22.8,40.7-53.9,33.2-90.8c-2-10-5.6-19.7-9-29.4c-1.6-4.3-1.7-7.4,1.2-11.5c24.6-35.1,45.6-72.4,65.2-110.6
	c0.8-1.6,1.8-3.2,2.9-4.6c6.3,33,15.9,64.8,33,93.6c-8.7,8.4-17.3,16-25.2,24.4c-17.2,18.5-32.1,38.6-39.9,63
	c-3.3,10.5-5.9,21.3-4.4,32.5c2.3,17.5,16.7,28.9,33.9,24.9c36.8-8.5,68.6-25.9,91.9-56.6c15.6-20.7,17.1-43.8,10.5-68
	c-1.8-6.6-3.9-13-6.2-20.6c9.1-2.8,18-6.2,27.1-8.3c47.6-10.9,94.7-9,140.5,8.2c26.8,10,48.4,26.8,61.2,53.2
	c15.7,32.3,7,62.9-23.4,83.4c-2.8,1.9-6.1,3.4-8.4,5.8c-1.5,1.8-2.3,4.1-2,6.4c0.2,1.2,3.3,2.7,5.1,2.6c10-0.1,18.1-5.3,25.9-10.7
	c19.5-13.5,33.8-31.7,36.8-55.6l0.6-1.8l-0.7-15.6c-0.3-0.9,0.2-1.8,0.2-2.5c-4.2-34.8-22.8-61.9-49.8-83
	c-31.3-24.5-68.4-34.6-107.5-36.2c-31.8-1.4-63.5,3.5-93.3,14.4c-8.6,3.1-17.1,6.8-25.7,10.3c-1.2-2.1-2.4-4.1-3.4-6.2
	c-8.8-18.1-19.6-35.4-21.9-56.2c-1.7-14.8-3.8-29.5-0.2-44.1c3.4-14,7.8-27.8,11.9-41.7c2.1-7.1,0.6-11.1-6.2-14.3
	c-2.4-1.2-4.9-2-7.5-2.5c-16.5-2.4-33.4-1.1-49.4,3.7c-5.7,1.7-9.9,4.9-11.2,11.2c-0.7,3.6-2.2,7.1-3.2,10.7
	c-4.2,14.9-7.2,30.2-14.1,44.4c-17.2,35.7-36.7,70-56.8,104.2c-2.2,3.7-4.5,7.3-7.2,11.8c-7-14.7-14.5-27.9-16.8-43.4
	c-2.6-17.5-4.6-35-0.2-52.4c3.2-13,7.5-25.7,11.4-38.5c1.8-6.1,1-9.3-4.5-12.5c-2.8-1.7-5.8-2.9-9.1-3.5
	c-17.2-2.6-34.7-1.2-51.2,4.2c-5.2,1.7-7.9,5-9.5,10.4c-4.7,15.8-8.6,32-15.2,47c-26.5,60.8-53.8,121.3-81,181.7
	c-5.7,12.7-12.4,24.9-18.8,37.2c-1.6,3.1-4,5.9-6,8.8c-1.6-1.9-2.3-3.2-2.3-4.6c0-7.8-0.9-15.8,0.6-23.3
	c4.5-22.7,9.7-45.3,15.1-67.8c4.5-18.6,9.7-37,14.7-55.5c1.7-6.2,1.7-12-2.7-17.2c-7.5-8.7-23.1-10.6-32.3-3.9l-4.1,2.3l0.8-6.6
	c2-14.1,2.3-28.2-1.5-42.2c-4.9-17.4-17.2-27.4-35.2-26.8c-8.5,0.2-17,1.8-25,4.8c-32.7,12.8-57.8,35.5-79.2,62.8
	c-2,2.5-4.4,4.7-7.2,6.3c-27.6,15.3-55.4,30.5-83.1,45.7l-30.9,16.9c-8.3-7.9-15.8-16.1-24.3-23c-26.1-21.3-52.6-42-78.8-63
	c-23.3-18.6-45.8-38-63.1-62.7c-12.8-18.3-21.1-38.4-21.9-61.1c-1-28.9,7.2-55.3,21.9-79.9c18.8-31.5,44.5-56.7,72.7-79.6
	c29.9-24.2,62.2-44.7,95.7-63.5c46.8-26.2,95-49.4,146.7-64.7c53-15.7,106.7-24.7,162.1-18.4c21.8,2.5,43,7.5,62.4,18.1
	c14.9,8.2,27.1,18.8,32.8,35.5c5.6,16.4,5.4,33.1,1.5,49.7c-7.9,33.8-26.4,61.6-49.7,86.5c-38.2,40.8-84.7,68.5-137.2,86.9
	c-30.1,10.6-61.5,17.2-93.3,19.9c-26.1,2.2-51.6-0.1-76.3-9.2c-16.4-6-30.6-15.2-42-28.5c-2-2.4-4.7-5-8.5-2.8s-4.4,5.8-3.1,9.4
	c2.1,6,4,12.2,7.3,17.6c8.2,13.4,20.1,23.2,33.3,31.5c25.3,16.1,53.5,21.5,82.8,22.7c44.4,1.9,87.8-4.7,130.5-16.6
	c61-17,114-47.1,156.6-94.5c35.4-39.5,60.7-84,66.1-137.8c2.7-26.3-0.2-52-12.5-75.9c-13.3-25.9-34.5-45.2-59.9-58.5
	c-36.9-19.4-76.8-30.6-117.9-30.6h-41.2c-49.8,0-97.9,14.3-144.7,31.3c-35.5,13-70.1,28-103.9,44.9c-73.4,36.7-141.8,80.9-198,141.8
	c-28,30.3-51.7,63.8-65.3,103.1c-4,11.5-7.8,23.9-10.6,35.8 M266.9,852.4c-3.2,42.6-22.5,77.2-54.1,105.2
	c-17.8,15.7-38.1,26.9-61.8,30.9c-8.6,1.4-17.4,1.8-25.8-1.8c-11.9-5.1-14.6-15.7-14.8-26.9c-0.3-17.9,5.9-34.1,14.5-49.6
	c11.2-20.1,27.7-35.4,45.3-49.8c27.7-22.6,57.8-41.7,88.6-59.7l2.3-1C266,817.3,268.2,834.7,266.9,852.4z M507.4,667.2
	c-2.1,13.7-5.1,27.2-9,40.4c-13.7,45.7-31.4,89.9-50.5,133.5c-3.5,8.1-8.7,15.4-13.1,23.1c-0.8,1.2-1.7,2.2-2.7,3.2
	c-5.5,5.5-10.8,5.2-13.5-2c-3.3-8.3-5.3-17.2-7-26c-1.2-5.9-0.9-12.1-1.2-18.1c0.4-43,13.5-82,35.7-118.3
	c9.2-15,19.1-29.3,34.4-38.8c4.7-2.9,9.9-5.2,15.3-6.7C503.7,655.3,508.7,659,507.4,667.2z M671.3,876.2l59-68.8
	C732.8,832.9,689.4,884,671.3,876.2L671.3,876.2z M859.7,829.8c-4.2,2.4-8.7,4.1-13,6.3c-3.9,2-5.2,0-5.3-3.4
	c-0.1-2.3,0.2-4.7,0.9-6.9c8-28.1,22.6-52,44.4-71.5l1.5-0.8C898.6,782.6,886.6,814.4,859.7,829.8L859.7,829.8z"/>
</svg>
