<svg id="Layer_1" data-name="Layer 1" xmlns="http://www.w3.org/2000/svg" viewBox="0 0 1200 897.48">
  <title>sass</title>
  <path d="M0,525.5c0,6.72,2,11.15,3.08,15.46,7.23,28,22.76,52.09,41.19,74,26.24,31.27,58.38,56.44,91.31,80.12,28.56,20.53,57.7,40.6,86.37,61,4.93,3.49,9.58,7.52,14.92,11.81-4.59,2.48-8.42,4.67-12.39,6.69-37.84,19.19-74.25,40.71-107.8,66.77C96.45,857.08,76.9,873.78,63.09,895.6,40.86,930.69,33,968.08,49.56,1008c4.84,11.66,12.22,21.73,22.62,29.18,3.38,2.4,7.16,4.79,11.11,5.73,10.11,2.38,20.42,3.94,30.65,5.82l29,0c32.06-2.86,61.24-13.84,87.61-32,41.21-28.44,69-66.57,80.91-115.52,8.68-35.57,9-71.18-1.19-106.59-.95-3.29-2.14-6.51-3.39-9.7s-2.7-6.28-4.42-10.24l65.72-37.79,1,.84c-1.19,3.91-2.47,7.81-3.55,11.75-7.8,28.52-13,57.54-11.13,87.14,2,31.54,10.79,61.06,29.26,87.42,14.92,21.31,50.5,22.1,66.36.71,5.63-7.6,11.09-15.54,15.19-24,10.72-22.12,20.64-44.64,30.87-67l1.79-4.09c-.74,10.59-1.6,19.89-2,29.2-.61,14.54.24,29,5.21,42.82,4.25,11.83,11.49,20.67,25,22.23,9.27,1.06,16.66-3.18,23.48-8.56a99.21,99.21,0,0,0,25.71-30.58c18.17-33.36,36.83-66.53,53.3-100.73,17.81-37,33.39-75.08,49.94-112.71l2.73-6.67C685.27,679.94,688,695,693,709.22a423.2,423.2,0,0,0,20.9,48.35c3.72,7.4,3.29,12.21-1.86,18.42-21.56,26-42.75,52.31-64,78.6a176.57,176.57,0,0,0-13.28,18,35.4,35.4,0,0,0-4.58,13,16.61,16.61,0,0,0,13.22,18.84,92.57,92.57,0,0,0,25.88,1.84c29.6-2.18,56.47-12.57,80.23-30.17,30.79-22.81,40.67-53.93,33.22-90.81-2-10-5.59-19.74-9-29.38-1.56-4.35-1.67-7.4,1.17-11.45,24.61-35.14,45.64-72.43,65.19-110.57a23.11,23.11,0,0,1,2.93-4.61c6.33,33,15.87,64.75,33,93.59-8.71,8.4-17.34,16-25.15,24.41-17.2,18.48-32.11,38.56-39.89,63-3.34,10.55-5.91,21.28-4.42,32.55,2.31,17.5,16.65,28.87,33.86,24.88,36.84-8.52,68.63-25.88,91.87-56.62,15.63-20.71,17.06-43.8,10.51-68-1.8-6.57-3.93-13-6.22-20.59,9.09-2.81,18-6.2,27.11-8.29,47.59-10.86,94.66-9,140.52,8.22,26.77,10,48.4,26.83,61.23,53.24,15.66,32.3,7,62.94-23.44,83.36-2.84,1.9-6.09,3.4-8.44,5.78a8.33,8.33,0,0,0-2,6.4c.2,1.18,3.31,2.65,5.1,2.63,10-.08,18.12-5.32,25.91-10.71,19.51-13.51,33.76-31.68,36.82-55.6l.61-1.8-.74-15.58c-.3-.89.22-1.78.15-2.46-4.15-34.84-22.75-61.86-49.82-83-31.35-24.51-68.37-34.61-107.51-36.2a242.88,242.88,0,0,0-93.34,14.36c-8.57,3.11-17.07,6.79-25.69,10.26-1.15-2.1-2.4-4.1-3.42-6.18-8.85-18.12-19.57-35.44-21.94-56.22-1.68-14.75-3.75-29.49-.24-44.08,3.37-14,7.77-27.85,11.91-41.7,2.13-7.13.63-11.12-6.18-14.33a27.47,27.47,0,0,0-7.51-2.47,115.69,115.69,0,0,0-49.42,3.67c-5.74,1.68-9.9,4.89-11.17,11.23-.73,3.64-2.21,7.13-3.24,10.73-4.24,14.94-7.24,30.16-14.08,44.39-17.15,35.7-36.72,70-56.76,104.15-2.17,3.68-4.45,7.29-7.18,11.76-7-14.72-14.54-27.93-16.82-43.41-2.57-17.51-4.59-35-.23-52.37,3.24-13,7.47-25.68,11.37-38.47,1.84-6.08,1-9.27-4.51-12.47a26.49,26.49,0,0,0-9.06-3.52,111.28,111.28,0,0,0-51.17,4.19c-5.19,1.68-7.92,5-9.5,10.39-4.67,15.79-8.64,32-15.19,47-26.51,60.79-53.79,121.26-81,181.72C572,819.8,565.32,832,558.91,844.27c-1.63,3.12-4,5.86-6,8.79-1.63-1.92-2.26-3.24-2.25-4.56.05-7.77-.88-15.77.6-23.28,4.48-22.73,9.65-45.34,15.08-67.85,4.5-18.6,9.72-37,14.7-55.5,1.68-6.19,1.71-12-2.74-17.17-7.46-8.71-23.06-10.62-32.31-3.91l-4.09,2.31.79-6.59c2-14.14,2.34-28.22-1.54-42.15C536.29,617,523.91,607,505.9,607.57a75.66,75.66,0,0,0-25,4.75c-32.68,12.81-57.81,35.49-79.2,62.77a24.76,24.76,0,0,1-7.23,6.26c-27.65,15.33-55.39,30.46-83.12,45.66l-30.86,16.91c-8.27-7.9-15.8-16.09-24.33-23-26.07-21.25-52.55-42-78.79-63-23.27-18.63-45.81-38-63.05-62.7-12.82-18.35-21.09-38.43-21.88-61.12-1-28.91,7.19-55.33,21.91-79.92,18.83-31.46,44.51-56.71,72.74-79.59,29.87-24.18,62.18-44.71,95.66-63.45,46.84-26.22,95-49.42,146.68-64.74,53-15.72,106.71-24.71,162.14-18.44,21.8,2.47,43,7.46,62.39,18.11,14.88,8.16,27.08,18.83,32.76,35.52,5.6,16.42,5.43,33.06,1.55,49.74-7.89,33.77-26.38,61.61-49.65,86.49-38.18,40.79-84.74,68.55-137.16,86.89a377.51,377.51,0,0,1-93.34,19.91c-26.08,2.19-51.62-.12-76.31-9.19-16.36-6-30.6-15.21-42-28.55-2-2.39-4.66-5-8.47-2.75s-4.4,5.76-3.15,9.36c2.09,6,4,12.22,7.28,17.57,8.19,13.43,20.14,23.17,33.29,31.52,25.26,16.07,53.5,21.47,82.77,22.72,44.43,1.92,87.77-4.71,130.5-16.63,61-17,114-47.06,156.59-94.47,35.43-39.47,60.72-84,66.14-137.81,2.65-26.26-.17-52-12.46-75.93-13.33-25.95-34.53-45.24-59.88-58.54-36.91-19.35-76.75-30.62-117.86-30.62h-41.2c-49.79,0-97.93,14.27-144.73,31.29A993.72,993.72,0,0,0,274.74,227.5c-73.43,36.69-141.82,80.93-198,141.77-28,30.31-51.67,63.75-65.3,103.13-4,11.52-7.77,23.88-10.62,35.8M266.9,852.4c-3.18,42.62-22.5,77.17-54.07,105.15-17.75,15.73-38.12,26.93-61.84,30.87-8.6,1.43-17.41,1.77-25.75-1.79-11.9-5.09-14.57-15.65-14.8-26.9-.35-17.93,5.93-34.14,14.54-49.57,11.24-20.1,27.72-35.44,45.31-49.75,27.72-22.57,57.79-41.66,88.58-59.69l2.33-1C266,817.35,268.22,834.72,266.9,852.4ZM507.35,667.18a319.81,319.81,0,0,1-9,40.42c-13.74,45.66-31.4,89.9-50.48,133.55-3.53,8.08-8.66,15.44-13.12,23.1a16.37,16.37,0,0,1-2.71,3.19c-5.52,5.46-10.76,5.17-13.55-2-3.25-8.29-5.25-17.17-7-26-1.16-5.89-.88-12.09-1.24-18.13.37-43,13.47-82,35.71-118.32,9.16-15,19.14-29.27,34.38-38.75a60.1,60.1,0,0,1,15.25-6.74C503.71,655.28,508.7,659,507.35,667.18Zm164,209,59-68.85C732.82,832.91,689.36,884,671.4,876.19Zm188.32-46.33c-4.17,2.39-8.71,4.11-13,6.32-3.91,2-5.2,0-5.32-3.38a23.08,23.08,0,0,1,.89-6.9c8-28.08,22.61-52,44.42-71.54l1.52-.79C898.62,782.58,886.64,814.44,859.72,829.86Z" transform="translate(0 -151.26)" style="fill: #cb6799"/>
</svg>
