<svg id="Layer_1" data-name="Layer 1" xmlns="http://www.w3.org/2000/svg" xmlns:xlink="http://www.w3.org/1999/xlink" viewBox="0 0 1200 1200.43">
  <defs>
    <linearGradient id="linear-gradient" x1="380.86" y1="758.38" x2="380.86" y2="1162.97" gradientTransform="matrix(2.67, 0, 0, -2.67, -1.67, 3203.67)" gradientUnits="userSpaceOnUse">
      <stop offset="0" stop-color="#44b3e7"/>
      <stop offset="1" stop-color="#3aaee4"/>
    </linearGradient>
    <linearGradient id="linear-gradient-2" x1="23.93" y1="854.82" x2="347.01" y2="1165.74" gradientTransform="matrix(2.67, 0, 0, -2.67, -1.67, 3203.67)" gradientUnits="userSpaceOnUse">
      <stop offset="0.12" stop-color="#0377bb"/>
      <stop offset="0.26" stop-color="#076ab1"/>
      <stop offset="0.28" stop-color="#076ab1"/>
      <stop offset="0.42" stop-color="#076ab1"/>
      <stop offset="0.49" stop-color="#0473b8"/>
      <stop offset="0.58" stop-color="#0377bb"/>
      <stop offset="0.8" stop-color="#0377bb"/>
      <stop offset="1" stop-color="#0e6fb8"/>
    </linearGradient>
  </defs>
  <title>vscode</title>
  <path d="M905.18,7.26c5.64,2.76,170.7,81.51,251.3,120a76.41,76.41,0,0,1,43.52,69v806.08a76.47,76.47,0,0,1-43.31,69c-76.46,36.85-228.41,110-238.52,114.82-7.44,3.54-27,14.07-42.86,14.07-20.34,0-34-9.48-47.41-21.9l72-226.85V51.25L832.25,17.19C846.71,3.06,866.76-.21,878.62-.21,889.48-.21,898.33,3.93,905.18,7.26Z" transform="translate(0 0.21)" style="fill: url(#linear-gradient)"/>
  <path d="M149.63,897l750.26-570.9V54.71c0-39-49.87-54.26-70.13-35.54C810.1,37.3,19.32,757.23,19.32,757.23a60,60,0,0,0,3.21,91s39.73,37,54.11,47.24C98.73,911.21,127.75,913,149.63,897Z" transform="translate(0 0.21)" style="fill: url(#linear-gradient-2)"/>
  <path d="M149.63,303,899.89,874.84v263.22c0,36-42.61,65.82-72,40.25L19.32,442.77a60,60,0,0,1,3.21-91s39.73-37,54.11-47.24C98.73,288.79,127.75,287,149.63,303Z" transform="translate(0 0.21)" style="fill: #1d87c9"/>
</svg>
