<?xml version="1.0" encoding="utf-8"?>
<!-- Generator: Adobe Illustrator 22.1.0, SVG Export Plug-In . SVG Version: 6.00 Build 0)  -->
<svg version="1.1" id="Layer_1" xmlns="http://www.w3.org/2000/svg" xmlns:xlink="http://www.w3.org/1999/xlink" x="0px" y="0px"
	 viewBox="0 0 1200 1200.4" style="enable-background:new 0 0 1200 1200.4;" xml:space="preserve">
<style type="text/css">
	.st0{fill:url(#SVGID_1_);}
	.st1{fill:url(#SVGID_2_);}
	.st2{fill:#1D87C9;}
</style>
<title>vscode</title>
<linearGradient id="SVGID_1_" gradientUnits="userSpaceOnUse" x1="380.382" y1="441.62" x2="380.382" y2="37.03" gradientTransform="matrix(2.67 0 0 2.67 -1.67 -0.1202)">
	<stop  offset="0" style="stop-color:#44B3E7"/>
	<stop  offset="1" style="stop-color:#3AAEE4"/>
</linearGradient>
<path class="st0" d="M905.2,7.5c5.6,2.8,170.7,81.5,251.3,120c26.6,12.7,43.5,39.5,43.5,69v806.1c0,29.4-16.8,56.2-43.3,69
	c-76.5,36.8-228.4,110-238.5,114.8c-7.4,3.5-27,14.1-42.9,14.1c-20.3,0-34-9.5-47.4-21.9l72-226.8V51.5l-67.6-34.1
	C846.7,3.3,866.8,0,878.6,0C889.5,0,898.3,4.1,905.2,7.5z"/>
<linearGradient id="SVGID_2_" gradientUnits="userSpaceOnUse" x1="24.4502" y1="345.7206" x2="347.5302" y2="34.8005" gradientTransform="matrix(2.67 0 0 2.67 -1.67 -0.1202)">
	<stop  offset="0.12" style="stop-color:#0377BB"/>
	<stop  offset="0.26" style="stop-color:#076AB1"/>
	<stop  offset="0.28" style="stop-color:#076AB1"/>
	<stop  offset="0.42" style="stop-color:#076AB1"/>
	<stop  offset="0.49" style="stop-color:#0473B8"/>
	<stop  offset="0.58" style="stop-color:#0377BB"/>
	<stop  offset="0.8" style="stop-color:#0377BB"/>
	<stop  offset="1" style="stop-color:#0E6FB8"/>
</linearGradient>
<path class="st1" d="M149.6,897.2l750.3-570.9V54.9c0-39-49.9-54.3-70.1-35.5C810.1,37.5,19.3,757.4,19.3,757.4
	c-24.4,22.5-25.9,60.4-3.5,84.8c2.1,2.2,4.3,4.3,6.7,6.2c0,0,39.7,37,54.1,47.2C98.7,911.4,127.8,913.2,149.6,897.2z"/>
<path class="st2" d="M149.6,303.2l750.3,571.8v263.2c0,36-42.6,65.8-72,40.3L19.3,443c-24.4-22.5-25.9-60.4-3.5-84.8
	c2.1-2.2,4.3-4.3,6.7-6.2c0,0,39.7-37,54.1-47.2C98.7,289,127.8,287.2,149.6,303.2z"/>
</svg>
